<svg xmlns="http://www.w3.org/2000/svg" width="32.434" height="37.356" viewBox="0 0 32.434 37.356">
  <g id="Grupo_2904" data-name="Grupo 2904" transform="translate(-1129.247 -570.816)">
    <path id="Trazado_2110" data-name="Trazado 2110" d="M12.983,7.149c-.92-.637-1.748-1.162-2.517-1.761A9.691,9.691,0,0,1,9.039,4c-.95-1.123-1.106-2.3-.486-3.168.639-.9,1.832-1.095,3.245-.468a12.043,12.043,0,0,1,1.732.98c.552.365,1.06.8,1.722,1.3,1.218-1.409,2.641-.813,4.087-.31Q23.7,3.854,28.08,5.3a3.137,3.137,0,0,1,2.076,1.9c2.69,6.571,5.419,13.126,8.124,19.691a2.47,2.47,0,0,1-1.506,3.636q-7.457,3.106-14.926,6.185a2.46,2.46,0,0,1-3.565-1.493q-4.129-9.932-8.231-19.875a2.842,2.842,0,0,1,.122-2.521c.946-1.866,1.858-3.75,2.809-5.678m2.575-2.391c-1.521,3.088-2.987,6.02-4.395,8.981a1.678,1.678,0,0,0,.088,1.19q4.057,9.907,8.162,19.793c.429,1.035.953,1.254,1.988.827q7.472-3.075,14.933-6.177c.992-.413,1.228-.943.832-1.907q-4.093-9.947-8.23-19.876a1.784,1.784,0,0,0-.891-.934q-5.193-1.837-10.43-3.545a1.167,1.167,0,0,0-1.014.095c-.291.22-.331.407-.318.423.589.692,1.152,1.41,1.79,2.055a1.628,1.628,0,0,0,.973.408,2.761,2.761,0,0,1,1.333,5.19,2.767,2.767,0,0,1-3.525-4.058A1.227,1.227,0,0,0,16.8,6.184a10.955,10.955,0,0,0-1.246-1.426M14.7,3.7a39.013,39.013,0,0,0-3.413-2.166,1.232,1.232,0,0,0-.962-.149.969.969,0,0,0-.646.841,1.335,1.335,0,0,0,.327.934C11.05,4.2,12.236,5.09,13.484,6.137L14.7,3.7m3.222,4.258c-.488,1.107-.266,1.894.584,2.264A1.505,1.505,0,0,0,20.5,9.379,1.372,1.372,0,0,0,19.475,7.5a1.249,1.249,0,0,0-1.552.458" transform="translate(1122.938 570.999)" fill="#0099d0" stroke="#0099d0" stroke-width="0.3"/>
    <path id="Trazado_2111" data-name="Trazado 2111" d="M.467,41.025c.065-.087.119-.18.189-.262.995-1.173,2.07-2.283,3.176-3.352a.652.652,0,0,1,.444-.191.56.56,0,0,1,.575.61.961.961,0,0,1-.186.428c-.889,1.034-1.92,1.949-2.772,3.011A2.737,2.737,0,0,0,1.3,43.025c.541,6.311,1.16,12.615,1.743,18.922.136,1.472.414,1.719,1.922,1.577,1.359-.128,2.716-.333,4.08-.333a.589.589,0,0,1,.546.23c.1.131.164.53.045.658s-.167.2-.668.3c-1.665.214-3.071.365-4.747.454a2.242,2.242,0,0,1-2.353-2.2Q1.1,54.695.374,46.749.193,44.814.017,42.878a5.767,5.767,0,0,1-.009-.73,2.193,2.193,0,0,1,.458-1.123" transform="translate(1129.4 541.605)" fill="#0099d0" stroke="#0099d0" stroke-width="0.3"/>
    <path id="Trazado_2112" data-name="Trazado 2112" d="M70.725,85.33a.886.886,0,0,1-.184-.377,1.7,1.7,0,0,1,.216-.791q2.316-5.615,4.643-11.224a1.8,1.8,0,0,1,.223-.466.666.666,0,0,1,.988-.025.607.607,0,0,1,.092.513c-.475,1.312-1.037,2.591-1.574,3.881-1.1,2.643-2.228,5.273-3.308,7.923-.373.915-1,.7-1.1.566" transform="translate(1073.692 513.949)" fill="#0099d0" stroke="#0099d0" stroke-width="0.3"/>
    <path id="Trazado_2113" data-name="Trazado 2113" d="M54.3,87.326a2.446,2.446,0,0,1-2.479-2.433,2.479,2.479,0,1,1,4.957,0,2.442,2.442,0,0,1-2.478,2.43m-.045-1.232a1.146,1.146,0,0,0,1.27-1.241,1.126,1.126,0,0,0-1.19-1.193,1.084,1.084,0,0,0-1.231,1.223,1.316,1.316,0,0,0,.4.826,1.2,1.2,0,0,0,.756.384" transform="translate(1088.471 505.937)" fill="#0099d0" stroke="#0099d0" stroke-width="0.3"/>
    <path id="Trazado_2114" data-name="Trazado 2114" d="M100.417,102.99a2.455,2.455,0,1,1-4.911-.028,2.455,2.455,0,1,1,4.911.028m-3.171-.852a1.334,1.334,0,0,0-.457.8c-.138.752.386,1.247,1.171,1.25a1.046,1.046,0,0,0,1.167-1.254,1.447,1.447,0,0,0-.355-.669,1.13,1.13,0,0,0-1.527-.122" transform="translate(1053.971 491.632)" fill="#0099d0" stroke="#0099d0" stroke-width="0.3"/>
  </g>
</svg>
