<svg id="Grupo_2832" data-name="Grupo 2832" xmlns="http://www.w3.org/2000/svg" xmlns:xlink="http://www.w3.org/1999/xlink" width="36.996" height="37" viewBox="0 0 36.996 37">
  <defs>
    <clipPath id="clip-path">
      <rect id="Rectángulo_2953" data-name="Rectángulo 2953" width="42.122" height="37" fill="#d0f4ff" stroke="#d0f4ff" stroke-width="0.3"/>
    </clipPath>
  </defs>
  <g id="Grupo_2831" data-name="Grupo 2831" clip-path="url(#clip-path)">
    <path id="Trazado_2095" data-name="Trazado 2095" d="M1.734,37c-.152-.064-.309-.119-.456-.192A2.137,2.137,0,0,1,0,34.761q0-4.7,0-9.392Q0,13.826,0,2.284A2.155,2.155,0,0,1,1.719.054,2.364,2.364,0,0,1,2.256.007Q12.064,0,21.872,0a1.066,1.066,0,0,1,.805.328q3.088,3.094,6.181,6.183a1.065,1.065,0,0,1,.338.8q-.01,6.647-.005,13.294a.761.761,0,0,1-.574.845.707.707,0,0,1-.814-.445,1.692,1.692,0,0,1-.056-.533q0-6.051,0-12.1V7.881h-.391c-1.264,0-2.529,0-3.793,0a2.154,2.154,0,0,1-2.245-2.249c-.006-1.252,0-2.5,0-3.757V1.45H2.5c-.814,0-1.06.243-1.06,1.048q0,16,0,32.007c0,.807.245,1.051,1.058,1.051q6.629,0,13.258,0a.872.872,0,0,1,.778.283c.3.388.172.8-.352,1.164ZM22.76,2.519c0,1.047,0,2.03,0,3.012a.792.792,0,0,0,.909.9c.914,0,1.829,0,2.743,0a1.542,1.542,0,0,0,.223-.033L22.76,2.519" transform="translate(0 -0.001)" fill="#d0f4ff" stroke="#d0f4ff" stroke-width="0.3"/>
    <path id="Trazado_2096" data-name="Trazado 2096" d="M244.014,322.537a5.47,5.47,0,0,1-2.106-.875,4.436,4.436,0,0,1-.68-6.557c1.979-2.087,4.023-4.115,6.1-6.1a4.137,4.137,0,0,1,4.465-.885,4.192,4.192,0,0,1,2.9,3.5,12.759,12.759,0,0,1,.016,1.922,9.242,9.242,0,0,1,1.5.152,4.381,4.381,0,0,1,3.417,3.593.472.472,0,0,0,.065.12v1.3a.745.745,0,0,0-.07.155,4.4,4.4,0,0,1-2.609,3.294,9.566,9.566,0,0,1-1.224.381h-1.228a.694.694,0,0,0-.154-.07,4.4,4.4,0,0,1-2.223-1.108,4.6,4.6,0,0,1-1.469-3.077c-.118.109-.205.185-.287.267q-1.3,1.3-2.6,2.6a4.562,4.562,0,0,1-1.941,1.194c-.238.072-.479.13-.719.2Zm6.1-5.762c.778-.774,1.569-1.532,2.327-2.321a2.909,2.909,0,0,0,.829-2.54,2.873,2.873,0,0,0-1.825-2.365,2.719,2.719,0,0,0-2.927.373c-.953.8-1.809,1.719-2.689,2.568l4.285,4.286m-5.393-3.175c-.831.857-1.712,1.7-2.512,2.61a2.924,2.924,0,0,0,.079,3.81,2.964,2.964,0,0,0,3.628.719c1.26-.705,2.049-1.938,3.106-2.831l-4.3-4.309m9.755,1.569a2.98,2.98,0,0,0-2.3,2.956c.076,1.4,1.177,2.75,2.3,2.8Zm1.471.007v5.759a2.954,2.954,0,0,0,0-5.759" transform="translate(-222.698 -285.537)" fill="#d0f4ff" stroke="#d0f4ff" stroke-width="0.3"/>
    <path id="Trazado_2097" data-name="Trazado 2097" d="M120.138,86.64a6.358,6.358,0,1,1,6.36-6.345,6.348,6.348,0,0,1-6.36,6.345m.009-1.445a4.911,4.911,0,1,0-4.918-4.921,4.949,4.949,0,0,0,4.918,4.921" transform="translate(-105.544 -68.572)" fill="#d0f4ff" stroke="#d0f4ff" stroke-width="0.3"/>
    <path id="Trazado_2098" data-name="Trazado 2098" d="M153.013,280.941q-3.086,0-6.172,0a.718.718,0,0,1-.76-.969.685.685,0,0,1,.66-.471c.24-.008.481,0,.722,0h11.513c.12,0,.241-.005.361,0a.718.718,0,0,1,.684.7.706.706,0,0,1-.692.73c-.541.017-1.083.006-1.624.006h-4.692" transform="translate(-135.457 -259.26)" fill="#d0f4ff" stroke="#d0f4ff" stroke-width="0.3"/>
    <path id="Trazado_2099" data-name="Trazado 2099" d="M150.278,335.4q1.713,0,3.427,0c.536,0,.857.265.868.7s-.32.74-.867.74q-3.463,0-6.925,0a.732.732,0,1,1,0-1.443q1.749,0,3.5,0" transform="translate(-135.356 -311.116)" fill="#d0f4ff" stroke="#d0f4ff" stroke-width="0.3"/>
    <path id="Trazado_2100" data-name="Trazado 2100" d="M65.815,279.49c.373,0,.746-.006,1.119,0a.721.721,0,1,1,.01,1.44q-1.137.012-2.274,0a.721.721,0,1,1-.01-1.439c.385-.008.77,0,1.155,0" transform="translate(-59.278 -259.252)" fill="#d0f4ff" stroke="#d0f4ff" stroke-width="0.3"/>
    <path id="Trazado_2101" data-name="Trazado 2101" d="M65.795,336.807c-.373,0-.746.006-1.119,0a.72.72,0,0,1-.769-.729.712.712,0,0,1,.75-.71q1.137-.013,2.274,0a.723.723,0,1,1-.018,1.441c-.373.006-.746,0-1.119,0" transform="translate(-59.28 -311.08)" fill="#d0f4ff" stroke="#d0f4ff" stroke-width="0.3"/>
    <path id="Trazado_2102" data-name="Trazado 2102" d="M65.793,392.7c-.373,0-.746.006-1.119,0a.72.72,0,0,1-.767-.731.71.71,0,0,1,.751-.709q1.137-.013,2.275,0a.721.721,0,1,1,.016,1.44c-.385.009-.77,0-1.155,0" transform="translate(-59.279 -362.924)" fill="#d0f4ff" stroke="#d0f4ff" stroke-width="0.3"/>
    <path id="Trazado_2103" data-name="Trazado 2103" d="M147.362,392.047a.713.713,0,0,1-.706.712.721.721,0,1,1,.019-1.441.711.711,0,0,1,.687.729" transform="translate(-135.353 -362.986)" fill="#d0f4ff" stroke="#d0f4ff" stroke-width="0.3"/>
    <path id="Trazado_2104" data-name="Trazado 2104" d="M159.172,119.321c0,.641,0,1.23,0,1.818a.752.752,0,0,1-.711.834c-.428.009-.728-.336-.731-.848,0-.587,0-1.174,0-1.8-.652,0-1.274.01-1.9,0a.722.722,0,1,1,.029-1.443c.611,0,1.221,0,1.869,0,0-.669-.01-1.3,0-1.938a.722.722,0,0,1,.721-.708.738.738,0,0,1,.715.719c.007.108,0,.217,0,.325,0,.516,0,1.033,0,1.6.625,0,1.234,0,1.842,0a.728.728,0,0,1,.745.462.708.708,0,0,1-.67.98c-.623.016-1.248,0-1.918,0" transform="translate(-143.855 -106.889)" fill="#d0f4ff" stroke="#d0f4ff" stroke-width="0.3"/>
  </g>
</svg>
