<svg width="236" height="54" viewBox="0 0 236 54" fill="none" xmlns="http://www.w3.org/2000/svg">
<path d="M35.7938 41.5976C34.498 42.243 33.0975 42.652 31.6581 42.8051C30.4222 42.944 29.18 43.0187 27.9365 43.0289C25.9883 43.0949 24.0782 42.4791 22.5354 41.2877C21.0779 40.1303 20.5267 38.2129 20.8816 35.5355C21.2031 33.0382 22.168 31.2533 23.7763 30.1807C25.5445 29.0451 27.5424 28.3152 29.6262 28.0435C30.8672 27.8776 31.6323 27.7451 32.1737 27.6872C34.8314 27.3255 36.2387 26.5509 36.3956 25.3635C36.4378 25.1732 36.4411 24.9764 36.4053 24.7848C36.3695 24.5932 36.2953 24.4108 36.1871 24.2486C36.079 24.0865 35.9392 23.9478 35.7762 23.8411C35.6131 23.7343 35.4301 23.6616 35.2382 23.6274C34.4361 23.3687 33.6003 23.2292 32.7576 23.2133C31.9843 23.2031 31.215 23.3249 30.4827 23.5734C29.8039 23.808 29.2345 24.2828 28.8817 24.9083H22.8672C23.3322 23.0778 24.4243 21.4683 25.9535 20.3598C27.7367 18.9829 30.114 18.2941 33.0855 18.2932C36.4187 18.2932 38.8449 18.8582 40.3641 19.9881C41.9356 21.1764 42.582 22.8413 42.3034 24.9828L41.2553 33.0999C40.9492 35.479 40.2779 37.3385 39.2415 38.6785C38.3403 39.9052 37.158 40.8979 35.7938 41.5732V41.5976ZM35.7938 30.6025C34.6267 31.1086 33.4118 31.4963 32.1673 31.7599L30.0583 32.2062C28.9459 32.5032 28.0651 32.7771 27.5764 33.3635C27.1013 33.9231 26.7957 34.6065 26.6955 35.3336C26.6228 35.7072 26.6326 36.0921 26.7241 36.4615C26.8156 36.8308 26.9867 37.1758 27.2253 37.4722C27.6968 37.9497 28.4397 38.1868 29.4539 38.1834C30.956 38.2413 32.4249 37.7322 33.569 36.7572C34.6751 35.7329 35.3623 34.3351 35.498 32.8337L35.7938 30.6025Z" fill="white"/>
<path d="M111.038 41.5976C109.743 42.2432 108.343 42.6521 106.904 42.8051C105.668 42.944 104.426 43.0187 103.182 43.0289C101.234 43.093 99.3247 42.4774 97.781 41.2877C96.3235 40.1303 95.7723 38.2129 96.1272 35.5355C96.4496 33.0382 97.4076 31.2533 99.0014 30.1807C100.756 29.018 102.761 28.2857 104.853 28.0435C105.807 27.9149 106.857 27.7451 107.4 27.6872C110.058 27.3255 111.466 26.5509 111.626 25.3635C111.667 25.173 111.669 24.9761 111.632 24.7848C111.577 24.4963 111.436 24.2312 111.227 24.0246C111.019 23.818 110.752 23.6795 110.463 23.6274C109.661 23.3686 108.825 23.2291 107.983 23.2133C107.209 23.2032 106.438 23.3249 105.705 23.5734C105.026 23.8078 104.457 24.2826 104.104 24.9083H98.1115C98.5794 23.079 99.6709 21.4704 101.198 20.3598C102.978 18.9829 105.356 18.2941 108.331 18.2932C111.663 18.2932 114.088 18.8582 115.605 19.9881C117.179 21.1764 117.826 22.8413 117.548 24.9828L116.501 33.0999C116.195 35.479 115.524 37.3385 114.487 38.6785C113.587 39.9068 112.404 40.8999 111.038 41.5732V41.5976ZM111.038 30.6025C109.871 31.1082 108.657 31.4959 107.413 31.7599L105.299 32.2062C104.19 32.5032 103.302 32.7771 102.818 33.3635C102.348 33.9243 102.043 34.6046 101.937 35.3285C101.864 35.7028 101.874 36.0885 101.965 36.4587C102.056 36.8289 102.227 37.1748 102.466 37.4722C102.939 37.9497 103.682 38.1868 104.696 38.1834C106.198 38.2411 107.667 37.7321 108.811 36.7572C109.917 35.7333 110.605 34.3353 110.74 32.8337L111.038 30.6025Z" fill="white"/>
<path d="M135.446 35.27H139.909C139.061 37.6014 137.491 39.6011 135.427 40.9772C133.286 42.3855 130.765 43.1064 128.203 43.0437C124.812 43.0437 122.306 41.9412 120.685 39.7362C119.06 37.5929 118.509 34.5301 119.031 30.5479C119.52 26.7414 120.824 23.767 122.943 21.6245C125.129 19.4195 127.915 18.317 131.302 18.317C134.868 18.317 137.497 19.3865 139.187 21.5255C140.109 22.8874 140.702 24.4443 140.92 26.074H134.663C134.503 25.5916 134.26 25.1404 133.946 24.7405C133.278 23.914 132.232 23.5003 130.807 23.4995C129.567 23.4738 128.364 23.917 127.437 24.7405C126.211 25.9313 125.422 27.8941 125.071 30.6289C124.721 33.3638 125.006 35.2927 125.926 36.4158C126.572 37.37 127.675 37.8467 129.235 37.8458C130.163 37.8664 131.08 37.6519 131.902 37.2221C132.099 37.1552 132.28 37.0499 132.436 36.9122L132.986 36.4158C133.228 36.1506 133.498 35.9134 133.793 35.7085C134.28 35.383 134.861 35.2263 135.446 35.2623" fill="white"/>
<path d="M144.191 40.4387C143.028 39.2687 142.283 37.7485 142.071 36.1127C141.768 34.2384 141.742 32.3297 141.995 30.448C142.218 28.7956 142.65 27.1782 143.281 25.6346C143.87 24.1288 144.763 22.7607 145.905 21.6159C147.612 19.8635 149.865 18.7458 152.293 18.4473C154.482 18.0942 156.725 18.2936 158.818 19.0273C159.844 19.4338 160.769 20.0595 161.528 20.8607C162.287 21.6619 162.862 22.6192 163.213 23.6658C163.976 25.6346 164.182 27.9172 163.846 30.5393C163.659 32.2251 163.235 33.876 162.586 35.4427C162.062 36.6944 161.366 37.8665 160.518 38.9251C159.014 40.7751 156.93 42.063 154.602 42.5799C152.66 43.1153 150.616 43.1594 148.652 42.7085C146.713 42.2661 145.22 41.5082 144.174 40.4349L144.191 40.4387ZM150.481 24.7254C149.053 26.1023 148.226 28.1393 148 30.8364C147.774 33.5335 148.034 35.4196 148.781 36.4946C149.21 37.0717 149.813 37.4951 150.501 37.7022C151.37 38.0276 152.322 38.0584 153.21 37.7896C154.303 37.4218 155.253 36.7184 155.923 35.7796C156.774 34.7123 157.383 32.9878 157.75 30.6062C158.026 28.4629 157.888 26.8571 157.336 25.7889C156.938 24.8501 156.185 24.1071 155.24 23.7224C154.375 23.4257 153.439 23.4095 152.564 23.6761C151.801 23.8633 151.087 24.2144 150.473 24.7048" fill="white"/>
<path d="M185.057 50.0859C184.948 50.9189 184.533 51.6815 183.891 52.2244C183.279 52.7976 182.472 53.1166 181.633 53.1169H178.598L181.465 29.1129C182.015 24.9524 183.601 22.113 186.223 20.5947C188.715 19.1174 191.556 18.3325 194.453 18.3211C195.957 18.3186 197.448 18.5991 198.849 19.1479C200.172 19.6179 201.324 20.4734 202.156 21.6041C203.644 23.9189 204.152 26.8934 203.683 30.5275C203.199 34.274 201.916 37.3063 199.832 39.6245C197.754 41.8852 195.319 43.0156 192.525 43.0156C191.205 43.0527 189.895 42.7778 188.701 42.2131C187.583 41.6019 186.708 40.6274 186.219 39.4509L185.057 50.0859ZM197.483 30.804C197.785 28.4802 197.567 26.6979 196.84 25.4492C196.113 24.2005 194.911 23.5768 193.239 23.5768C192.476 23.5629 191.719 23.7245 191.028 24.0491C190.337 24.3737 189.729 24.8527 189.253 25.4492C188.268 26.5783 187.627 28.3645 187.312 30.804C187.016 33.0622 187.244 34.7579 187.995 35.8913C188.723 37.1335 189.921 37.7564 191.588 37.7598C192.337 37.7654 193.078 37.6001 193.754 37.2763C194.429 36.9525 195.022 36.4788 195.487 35.8913C196.542 34.6362 197.208 32.9404 197.483 30.804Z" fill="white"/>
<path d="M3.13931 42.5815H0.000244141L3.52767 15.0964C3.64037 14.2079 4.0834 13.3944 4.76863 12.8177C5.4197 12.2141 6.27529 11.8795 7.16312 11.8815H26.2547L25.568 17.154H9.5113L8.65485 23.7703H20.6144L20.3572 25.8381C20.2426 26.7278 19.7967 27.5415 19.1085 28.1169C18.4569 28.7195 17.6016 29.0534 16.714 29.0518H7.97714L6.64101 39.4013V39.5299C6.53333 40.3662 6.11851 41.1326 5.4772 41.68C4.86119 42.2496 4.05286 42.5656 3.21389 42.5648L3.13931 42.5815Z" fill="white"/>
<path d="M45.7699 42.5812H42.5549L44.0389 31.073C44.2527 29.0293 44.8578 27.0458 45.8213 25.2308C46.6326 23.7397 47.7618 22.445 49.1288 21.4385C50.4034 20.5323 51.8329 19.8668 53.3468 19.4748C54.8993 19.0621 56.4986 18.8521 58.1049 18.8499H59.0051L58.1782 25.1846H56.1078C54.3833 25.1846 53.0472 25.5986 52.1136 26.4255C51.18 27.2524 50.5871 28.5628 50.3582 30.3542L49.2137 39.5167V39.5373C49.1023 40.3717 48.6853 41.1351 48.0435 41.6797C47.4312 42.253 46.6241 42.5724 45.7853 42.5735L45.7699 42.5812Z" fill="white"/>
<path d="M167.756 42.5812H164.541L166.025 31.073C166.239 29.0293 166.844 27.0458 167.807 25.2308C168.617 23.7399 169.745 22.4452 171.111 21.4385C172.386 20.5325 173.815 19.867 175.329 19.4748C176.885 19.0622 178.487 18.8522 180.096 18.8499H180.986L180.159 25.1846H178.091C176.368 25.1846 175.037 25.5982 174.097 26.4255C173.157 27.2528 172.572 28.5624 172.34 30.3542L171.195 39.5167V39.5373C171.086 40.3718 170.67 41.1358 170.028 41.6797C169.416 42.2532 168.609 42.5727 167.77 42.5735L167.756 42.5812Z" fill="white"/>
<path d="M87.0852 42.5748L89.0283 27.4196C89.2109 25.9884 88.9177 24.939 88.1358 24.2973C87.3639 23.6416 86.3784 23.2915 85.3658 23.3135C84.2788 23.3174 83.2203 23.6614 82.3386 24.2973C81.3909 24.9506 80.825 25.9884 80.6424 27.4196L80.4778 28.6606L79.08 39.5194C78.9548 40.3459 78.5437 41.1024 77.9181 41.6569C77.2926 42.2115 76.4923 42.529 75.6567 42.5542H72.5472L74.3476 28.64L74.5083 27.3991C74.691 25.9678 74.3926 24.9184 73.6159 24.2767C72.8439 23.6203 71.8577 23.2702 70.8446 23.293C69.7721 23.2908 68.7277 23.6359 67.8676 24.2767C66.9455 24.93 66.3964 25.9678 66.2138 27.3991L64.6552 39.5026C64.5448 40.337 64.1276 41.1003 63.485 41.6438C62.8722 42.2157 62.0651 42.5338 61.2268 42.5337H57.999L59.7994 28.6182C60.3138 24.5682 61.7185 21.8612 64.0135 20.4973C66.2168 19.1558 68.7219 18.3895 71.2986 18.2687C72.632 18.2645 73.9615 18.4142 75.2606 18.7149C76.5137 19.0016 77.6677 19.6168 78.6042 20.4973C79.6042 19.7189 80.7543 19.1559 81.9824 18.8435C83.2492 18.5173 84.5464 18.3234 85.8532 18.2648C88.3294 18.2275 90.7577 18.9491 92.8116 20.3326C94.8331 21.7104 95.5777 24.4765 95.0453 28.631L93.8622 37.7743L93.6346 39.4975C93.5258 40.3318 93.1099 41.0957 92.4682 41.6399C91.8561 42.212 91.0492 42.5297 90.2114 42.5285L87.0852 42.5748Z" fill="white"/>
<path d="M221.225 19.6416C221.047 19.4552 221.014 19.4256 220.811 19.6416C217.032 24.3431 217.504 29.9783 221.022 29.9783C224.541 29.9783 225.005 24.3341 221.225 19.6416Z" fill="white"/>
<path d="M231.704 25.6785C233.279 24.0955 228.232 18.5954 224.335 18.153C224.286 18.144 224.235 18.144 224.186 18.153C224.176 18.2022 224.176 18.253 224.186 18.3022C224.619 22.2141 230.119 27.2538 231.704 25.6785Z" fill="white"/>
<path d="M225.662 14.7787C225.472 14.9523 225.446 14.9934 225.662 15.1928C230.366 18.9632 236 18.463 236 14.9651C236 11.4673 230.364 10.9915 225.662 14.7787Z" fill="white"/>
<path d="M231.715 4.28384C230.127 2.71238 224.628 7.75597 224.186 11.6525C224.176 11.7017 224.176 11.7524 224.186 11.8016C224.237 11.8106 224.288 11.8106 224.339 11.8016C228.255 11.367 233.286 5.86816 231.715 4.28384Z" fill="white"/>
<path d="M220.816 10.3379C220.994 10.5321 221.032 10.5527 221.23 10.3379C224.996 5.63642 224.491 0 220.994 0C217.498 0 217.031 5.6377 220.816 10.3379Z" fill="white"/>
<path d="M210.318 4.27581C208.747 5.85884 213.783 11.3589 217.687 11.8013C217.697 11.8119 217.709 11.8203 217.723 11.826C217.736 11.8317 217.751 11.8347 217.765 11.8348C217.78 11.8354 217.795 11.8328 217.809 11.8273C217.822 11.8217 217.835 11.8133 217.845 11.8026C217.856 11.7926 217.864 11.7805 217.87 11.767C217.876 11.7535 217.879 11.7389 217.88 11.7242C217.88 11.6944 217.868 11.6658 217.847 11.6444C217.404 7.74022 211.901 2.68378 210.318 4.27581Z" fill="white"/>
<path d="M216.364 15.2041C216.555 15.0228 216.579 14.9932 216.364 14.79C211.676 10.9951 206.028 11.4825 206.028 14.9726C206.028 18.4628 211.646 18.9669 216.364 15.2041Z" fill="white"/>
<path d="M210.311 25.6743C211.895 27.2458 217.395 22.2086 217.838 18.3057C217.847 18.2564 217.847 18.2059 217.838 18.1565C217.788 18.1488 217.738 18.1488 217.688 18.1565C213.784 18.5912 208.741 24.09 210.311 25.6743Z" fill="white"/>
</svg>
