<svg width="354" height="66" viewBox="0 0 354 66" fill="none" xmlns="http://www.w3.org/2000/svg">
<path d="M27.5686 42.2084H13.516L10.105 64.2583H0.0253906L6.9112 19.8008C7.14486 18.3637 7.86248 17.0495 8.94517 16.076C10.0279 15.1025 11.4106 14.5281 12.8644 14.448H43.7675L42.49 23.0968H16.4287L14.7935 33.7896H34.25L33.7518 37.0856C33.4626 38.5179 32.691 39.8078 31.5658 40.74C30.4406 41.6723 29.0297 42.1906 27.5686 42.2084Z" fill="white"/>
<path d="M52.072 35.6164H42.3246C44.6114 28.4368 50.2069 24.9236 59.1495 24.9236C69.8423 24.9236 74.7096 28.4368 73.8154 35.6164L71.7713 48.8003C70.1233 59.4932 62.9437 64.2583 52.3531 64.9865C42.9378 65.7274 37.1634 61.4094 38.4921 52.8373C40.1528 43.537 47.2686 41.0458 57.2332 40.0621C61.4873 39.5511 63.8124 38.312 64.1318 36.2296C64.2596 34.0323 62.3688 32.9336 58.3446 32.9336C54.9081 32.9081 52.8641 33.7896 52.072 35.6164ZM62.3944 48.3916L62.9565 44.8017C60.3233 45.8249 57.6042 46.6115 54.8315 47.1524C50.8329 47.8805 48.5717 49.7074 48.1373 52.569C47.869 55.6478 49.2615 57.1042 52.3276 57.1042C54.8169 57.2358 57.2598 56.3933 59.1388 54.7551C61.0178 53.117 62.1854 50.8117 62.3944 48.3277V48.3916Z" fill="white"/>
<path d="M77.1748 44.2652C79.4147 31.7455 87.0202 25.4942 99.9913 25.5113H101.384L99.8252 35.6164H96.5547C91.1381 35.6164 87.9826 38.478 87.1011 44.1119L83.984 64.2583H74.0833L77.1748 44.2652Z" fill="white"/>
<path d="M113.648 39.5001L109.815 64.2584H99.9275L103.453 41.4803C105.178 30.417 111.591 24.8726 122.616 24.8726C127.598 24.8726 131.239 25.9712 133.679 28.1686C137.286 25.9182 141.493 24.8218 145.739 25.0259C156.802 25.0259 161.44 30.5192 159.651 41.6336L156.125 64.4117H151.015C147.822 64.1817 146.455 62.6487 146.927 59.5699L150.006 39.6534C150.415 35.6165 148.524 33.6491 144.206 33.6491C139.888 33.6491 137.384 35.6165 136.682 39.6534L132.849 64.2584H123.025L126.858 39.5001C127.254 35.4759 125.363 33.4958 121.045 33.4958C116.727 33.4958 114.351 35.4759 113.648 39.5001Z" fill="white"/>
<path d="M176.297 35.6164H166.549C168.836 28.4368 174.431 24.9236 183.361 24.9236C194.054 24.9236 198.934 28.4368 198.04 35.6164L195.996 48.8003C194.348 59.4932 187.168 64.2583 176.578 64.9865C167.162 65.7274 161.388 61.4094 162.717 52.8373C164.377 43.537 171.493 41.0458 181.458 40.0621C185.712 39.5511 188.024 38.312 188.356 36.2296C188.471 34.0323 186.593 32.9336 182.569 32.9336C179.133 32.9081 177.038 33.7896 176.297 35.6164ZM186.619 48.3916L187.181 44.8017C184.547 45.8232 181.828 46.6098 179.056 47.1524C175.057 47.8805 172.796 49.7074 172.349 52.569C172.094 55.6478 173.486 57.1042 176.552 57.1042C179.042 57.2358 181.484 56.3933 183.363 54.7551C185.242 53.117 186.41 50.8117 186.619 48.3277V48.3916Z" fill="white"/>
<path d="M215.735 64.9355C204.02 64.9355 199.127 58.203 200.826 44.8785C202.883 31.6179 209.845 24.9492 221.816 24.7321C231.193 24.7321 236.111 28.9095 236.494 37.3284H225.878C225.112 34.6967 223.323 33.3042 220.193 33.3042C215.083 33.3042 211.915 37.1367 210.714 44.8785C209.513 52.6202 211.634 56.44 217.102 56.3761C219.487 56.3187 221.752 55.3171 223.4 53.5911C224.335 52.6995 225.57 52.1893 226.862 52.1603H234.195C231.205 60.1192 224.716 65.1782 215.735 64.9355Z" fill="white"/>
<path d="M254.2 19.0342L247.225 64.0794H237.49L245.155 14.2563H250.201C250.799 14.2424 251.393 14.3635 251.938 14.6105C252.484 14.8574 252.966 15.224 253.35 15.683C253.734 16.142 254.01 16.6816 254.157 17.2617C254.304 17.8419 254.319 18.4477 254.2 19.0342Z" fill="white"/>
<path d="M287.708 48.6217C286.673 55.2904 284.297 59.685 280.528 61.8057C276.877 63.7735 272.795 64.805 268.648 64.8079C264.889 64.8838 261.21 63.726 258.172 61.5119C255.131 59.3912 254.109 55.1243 255.119 48.6217L258.721 25.3326H268.456L264.547 50.6019C263.87 54.9199 265.748 56.9895 270.142 56.9895C274.537 56.9895 277.054 54.8688 277.731 50.6019L280.899 30.1616C281.321 26.9423 283.109 25.3326 286.328 25.3326H291.311L287.708 48.6217Z" fill="white"/>
<path d="M304.457 30.749C305.813 28.8621 307.605 27.3307 309.68 26.2853C311.755 25.2398 314.052 24.7113 316.376 24.7447C326.596 25.1151 330.722 31.8477 328.691 45.0316C326.685 57.9217 319.672 64.4371 307.625 64.667C295.578 64.897 290.353 58.9438 292.154 47.3056L297.264 14.269H302.234C305.453 14.269 306.807 15.9554 306.309 19.1747L304.457 30.749ZM302.31 44.5973C301.033 52.4284 303.051 56.3887 308.621 56.3887C314.191 56.3887 317.564 52.4284 318.841 44.5973C319.787 37.1238 317.641 33.4573 312.364 33.4573C307.088 33.4573 303.767 37.1238 302.31 44.5973Z" fill="white"/>
<path d="M344.086 14.3455C343.92 14.4988 343.894 14.5372 344.086 14.7288C348.353 18.1525 353.463 17.6926 353.463 14.5244C353.463 11.3562 348.353 10.8963 344.086 14.3455Z" fill="white"/>
<path d="M335.655 14.729C335.821 14.5629 335.846 14.5373 335.655 14.3329C331.401 10.8964 326.291 11.3308 326.278 14.499C326.265 17.6672 331.375 18.1399 335.655 14.729Z" fill="white"/>
<path d="M340.074 18.7403C339.908 18.5742 339.87 18.5486 339.678 18.7403C336.242 23.0072 336.689 28.1172 339.87 28.1172C343.051 28.1172 343.498 23.0199 340.074 18.7403Z" fill="white"/>
<path d="M339.691 10.3089C339.845 10.4877 339.883 10.5005 340.087 10.3089C343.498 6.04196 343.038 0.931885 339.87 0.931885C336.702 0.931885 336.255 6.04196 339.691 10.3089Z" fill="white"/>
<path d="M349.58 4.81544C348.149 3.38463 343.192 7.95812 342.758 11.5096C342.744 11.5511 342.744 11.5959 342.758 11.6374H342.898C346.437 11.2797 351.011 6.25904 349.58 4.81544Z" fill="white"/>
<path d="M330.161 4.81547C328.743 6.24629 333.316 11.203 336.855 11.6374H336.983C336.991 11.5909 336.991 11.5433 336.983 11.4969C336.6 7.95815 331.617 3.38465 330.161 4.81547Z" fill="white"/>
<path d="M330.16 24.2337C331.591 25.6517 336.548 21.0782 336.982 17.5395C336.996 17.498 336.996 17.4532 336.982 17.4117H336.842C333.303 17.795 328.729 22.7773 330.16 24.2337Z" fill="white"/>
<path d="M349.578 24.2337C351.009 22.8028 346.423 17.8461 342.884 17.4117C342.843 17.3981 342.798 17.3981 342.757 17.4117C342.748 17.4582 342.748 17.5058 342.757 17.5523C343.114 21.091 348.135 25.6645 349.578 24.2337Z" fill="white"/>
</svg>
