<svg width="554" height="123" viewBox="0 0 554 123" fill="none" xmlns="http://www.w3.org/2000/svg">
<path d="M128.867 27.9022H183.031V44.3544H147.634V55.806H179.64V71.5006H147.634V95.746H128.867V27.9022Z" fill="white"/>
<path d="M193.849 27.9022H212.725V95.7677H193.849V27.9022Z" fill="white"/>
<path d="M227.13 27.9022H245.876V79.2721H278.724V95.7677H227.13V27.9022Z" fill="white"/>
<path d="M288.722 27.9022H308.548L324.702 54.1824L340.856 27.9022H360.79V95.7677H342.001V56.8018L324.724 83.3636H324.335L307.058 56.9967V95.7677H288.593L288.722 27.9022Z" fill="white"/>
<path d="M374.979 27.9022H393.854V95.7677H374.979V27.9022Z" fill="white"/>
<path d="M424.781 44.3544H404.48V27.9022H463.87V44.3544H443.548V95.746H424.781V44.3544Z" fill="white"/>
<path d="M493.652 70.3316L467.93 27.9022H489.289L503.219 52.6238L517.235 27.9022H538.227L512.505 70.0719V95.7677H493.652V70.3316Z" fill="white"/>
<path d="M544.036 70.9347C542.817 70.9426 541.61 70.6918 540.494 70.1986C539.425 69.7444 538.456 69.0821 537.644 68.2503C536.829 67.4193 536.177 66.4428 535.721 65.3712C535.263 64.2668 535.028 63.082 535.03 61.8859C535.028 60.6897 535.263 59.505 535.721 58.4006C536.18 57.324 536.831 56.3408 537.644 55.4999C538.469 54.6582 539.452 53.9886 540.537 53.5299C541.653 53.0368 542.86 52.786 544.079 52.7939C545.299 52.7779 546.508 53.029 547.621 53.5299C548.694 53.989 549.669 54.6505 550.493 55.4782C551.294 56.316 551.938 57.2911 552.394 58.3573C552.862 59.4587 553.097 60.6455 553.085 61.8427C553.1 63.0471 552.865 64.2415 552.394 65.3496C551.944 66.4306 551.291 67.4152 550.472 68.2503C549.654 69.0914 548.678 69.7611 547.599 70.2203C546.476 70.709 545.261 70.9525 544.036 70.9347ZM544.036 69.9389C545.102 69.9423 546.157 69.7314 547.14 69.3187C548.123 68.9059 549.014 68.2998 549.759 67.536C550.476 66.79 551.047 65.9163 551.444 64.9599C551.841 63.9612 552.046 62.8961 552.048 61.821C552.059 60.7516 551.853 59.6912 551.444 58.7037C551.068 57.7414 550.503 56.8652 549.781 56.1276C549.057 55.3986 548.199 54.8178 547.254 54.4175C546.25 53.9888 545.17 53.7677 544.079 53.7677C542.988 53.7677 541.908 53.9888 540.905 54.4175C539.949 54.8174 539.088 55.4149 538.378 56.171C537.661 56.917 537.09 57.7907 536.693 58.747C536.288 59.7358 536.082 60.7954 536.088 61.8643C536.078 62.9337 536.284 63.9941 536.693 64.9816C537.085 65.9356 537.648 66.8088 538.356 67.5575C539.08 68.2866 539.938 68.8675 540.883 69.2678C541.875 69.7117 542.95 69.9404 544.036 69.9389ZM540.106 56.7554H544.554C545.214 56.734 545.872 56.8293 546.498 57.0368C546.987 57.1968 547.432 57.4714 547.794 57.8378C548.076 58.1209 548.296 58.4595 548.441 58.832C548.586 59.2045 548.652 59.603 548.636 60.0025C548.655 60.6577 548.466 61.3021 548.096 61.8427C547.718 62.3306 547.219 62.7112 546.649 62.9467L548.96 66.3021H545.893L543.928 63.3796H542.762V66.3021H540.041L540.106 56.7554ZM544.425 61.388C544.808 61.4101 545.188 61.3035 545.505 61.0849C545.625 60.9853 545.72 60.8593 545.784 60.7167C545.848 60.574 545.878 60.4185 545.872 60.2623C545.882 60.1002 545.852 59.9382 545.784 59.7907C545.716 59.6433 545.613 59.5152 545.483 59.4181C545.163 59.2067 544.786 59.1007 544.403 59.115H542.675V61.453L544.425 61.388Z" fill="white"/>
<path d="M93.2971 47.9034L26.0458 3.95867C23.5274 2.10307 20.5316 1.0089 17.4126 0.80559C14.2936 0.602277 11.1817 1.29825 8.44475 2.81128C2.48414 5.99349 -0.0426489 11.2972 0.000543934 17.9647C0.000543934 24.1775 0.000543934 30.3687 0.000543934 36.5816H37.3192C37.6211 36.5604 37.9243 36.5604 38.2262 36.5816C40.2768 36.5816 42.2433 37.3982 43.6932 38.8515C45.1432 40.3049 45.9577 42.2761 45.9577 44.3315C45.9577 46.3869 45.1432 48.3581 43.6932 49.8115C42.2433 51.2649 40.2768 52.0814 38.2262 52.0814H37.7511H0.130117V69.681H37.8807H38.3558C40.3385 69.786 42.2054 70.6493 43.5718 72.0932C44.9381 73.5371 45.6998 75.4515 45.6998 77.4416C45.6998 79.4318 44.9381 81.3461 43.5718 82.79C42.2054 84.2339 40.3385 85.0973 38.3558 85.2023H37.8807H0.130117C0.130117 92.1729 0.130117 99.1435 0.130117 106.114C0.102398 107.948 0.327688 109.776 0.799601 111.548C3.75831 121.874 16.3058 126.16 25.7434 120.012C48.2901 105.363 70.8152 90.6504 93.3187 75.8722C104.419 68.5986 104.441 55.1337 93.3187 47.8601" fill="url(#paint0_linear_90_206)"/>
<defs>
<linearGradient id="paint0_linear_90_206" x1="-1.5328" y1="9.6736" x2="60.9279" y2="98.6363" gradientUnits="userSpaceOnUse">
<stop offset="0.39" stop-color="#FF5033"/>
<stop offset="0.93" stop-color="#DF161D"/>
</linearGradient>
</defs>
</svg>
