<?xml version="1.0" encoding="utf-8"?>
<!-- Generator: Adobe Illustrator 25.3.1, SVG Export Plug-In . SVG Version: 6.00 Build 0)  -->
<svg version="1.1" id="Capa_1" xmlns="http://www.w3.org/2000/svg" xmlns:xlink="http://www.w3.org/1999/xlink" x="0px" y="0px"
	 viewBox="0 0 636.7 67" style="enable-background:new 0 0 636.7 67;" xml:space="preserve">
<style type="text/css">
	.st0{fill:#FFFFFF;}
	.st1{fill:url(#SVGID_1_);}
	.st2{fill:none;stroke:#FFFFFF;stroke-width:2;stroke-miterlimit:10;}
</style>
<path class="st0" d="M66.3,17.2h27.9v8.5H76v5.9h16.5v8.1H76v12.5h-9.7V17.2z"/>
<path class="st0" d="M99.7,17.2h9.7v34.9h-9.7V17.2z"/>
<path class="st0" d="M116.9,17.2h9.6v26.4h16.9v8.5h-26.5C116.9,52.1,116.9,17.2,116.9,17.2z"/>
<path class="st0" d="M148.6,17.2h10.2l8.3,13.5l8.3-13.5h10.3v34.9H176V32l-8.9,13.7h-0.2L158,32.1V52h-9.5L148.6,17.2z"/>
<path class="st0" d="M192.9,17.2h9.7v34.9h-9.7V17.2z"/>
<path class="st0" d="M218.6,25.6h-10.4v-8.5h30.6v8.5h-10.5V52h-9.7L218.6,25.6L218.6,25.6z"/>
<path class="st0" d="M254,39l-13.2-21.8h11l7.2,12.7l7.2-12.7H277l-13.2,21.7v13.2H254V39z"/>
<path class="st0" d="M279.9,39.3c-0.6,0-1.2-0.1-1.8-0.4c-0.6-0.2-1-0.6-1.5-1c-0.4-0.4-0.8-0.9-1-1.5s-0.4-1.2-0.4-1.8
	s0.1-1.2,0.4-1.8c0.2-0.6,0.6-1.1,1-1.5s0.9-0.8,1.5-1c0.6-0.3,1.2-0.4,1.8-0.4c0.6,0,1.2,0.1,1.8,0.4c0.6,0.2,1.1,0.6,1.5,1
	s0.7,0.9,1,1.5c0.2,0.6,0.4,1.2,0.4,1.8s-0.1,1.2-0.4,1.8c-0.2,0.6-0.6,1.1-1,1.5s-0.9,0.8-1.5,1C281.2,39.2,280.6,39.3,279.9,39.3z
	 M279.9,38.8c0.5,0,1.1-0.1,1.6-0.3s1-0.5,1.3-0.9c0.4-0.4,0.7-0.8,0.9-1.3c0.2-0.5,0.3-1.1,0.3-1.6c0-0.6-0.1-1.1-0.3-1.6
	c-0.2-0.5-0.5-0.9-0.9-1.3c-0.4-0.4-0.8-0.7-1.3-0.9c-0.5-0.2-1.1-0.3-1.6-0.3c-0.6,0-1.1,0.1-1.6,0.3c-0.5,0.2-0.9,0.5-1.3,0.9
	c-0.4,0.4-0.7,0.8-0.9,1.3c-0.2,0.5-0.3,1.1-0.3,1.6c0,0.6,0.1,1.1,0.3,1.6c0.2,0.5,0.5,0.9,0.9,1.3c0.4,0.4,0.8,0.7,1.3,0.9
	S279.4,38.8,279.9,38.8z M277.9,32h2.3c0.3,0,0.7,0,1,0.1s0.5,0.2,0.7,0.4c0.1,0.1,0.3,0.3,0.3,0.5c0.1,0.2,0.1,0.4,0.1,0.6
	c0,0.3-0.1,0.7-0.3,0.9c-0.2,0.3-0.5,0.4-0.7,0.6l1.2,1.7h-1.6l-1-1.5h-0.6v1.5h-1.4V32z M280.1,34.4c0.2,0,0.4,0,0.6-0.2
	c0.1-0.1,0.1-0.1,0.1-0.2c0-0.1,0-0.2,0-0.2c0-0.1,0-0.2,0-0.2c0-0.1-0.1-0.1-0.2-0.2c-0.2-0.1-0.4-0.2-0.6-0.2h-0.9v1.2L280.1,34.4
	z"/>
<linearGradient id="SVGID_1_" gradientUnits="userSpaceOnUse" x1="-0.8978" y1="611.8936" x2="31.2329" y2="657.6572" gradientTransform="matrix(1 0 0 1 0 -603.9806)">
	<stop  offset="0.39" style="stop-color:#FF5033"/>
	<stop  offset="0.93" style="stop-color:#DF161D"/>
</linearGradient>
<path class="st1" d="M48,27.5L13.4,4.9c-1.3-1-2.8-1.5-4.4-1.6s-3.2,0.3-4.6,1C1.3,5.9,0,8.6,0,12.1c0,3.2,0,6.4,0,9.6h19.2
	c0.2,0,0.3,0,0.5,0c1.1,0,2.1,0.4,2.8,1.2c0.7,0.7,1.2,1.8,1.2,2.8c0,1.1-0.4,2.1-1.2,2.8c-0.7,0.7-1.8,1.2-2.8,1.2h-0.2H0.1v9.1
	h19.4h0.2c1,0.1,2,0.5,2.7,1.2s1.1,1.7,1.1,2.8c0,1-0.4,2-1.1,2.8c-0.7,0.7-1.7,1.2-2.7,1.2h-0.2H0.1c0,3.6,0,7.2,0,10.8
	c0,0.9,0.1,1.9,0.3,2.8c1.5,5.3,8,7.5,12.8,4.4C24.8,57,36.4,49.5,48,41.9C53.7,38.1,53.7,31.2,48,27.5"/>
<g>
	<path class="st0" d="M372.1,34.2h-11.4L358,52.1h-8.2l5.6-36c0.2-1.2,0.8-2.2,1.6-3c0.9-0.8,2-1.3,3.2-1.3h25l-1,7h-21.1l-1.3,8.7
		h15.8l-0.4,2.7c-0.2,1.2-0.9,2.2-1.8,3C374.4,33.8,373.3,34.2,372.1,34.2z"/>
	<path class="st0" d="M392,28.9h-7.9c1.9-5.8,6.4-8.7,13.6-8.7c8.7,0,12.6,2.8,11.9,8.7l-1.7,10.7c-1.3,8.7-7.1,12.5-15.7,13.1
		c-7.6,0.6-12.3-2.9-11.2-9.8c1.3-7.5,7.1-9.5,15.2-10.3c3.4-0.4,5.3-1.4,5.6-3.1c0.1-1.8-1.4-2.7-4.7-2.7
		C394.2,26.7,392.6,27.4,392,28.9z M400.3,39.2l0.5-2.9c-2.1,0.8-4.3,1.5-6.6,1.9c-3.2,0.6-5.1,2.1-5.4,4.4
		c-0.2,2.5,0.9,3.7,3.4,3.7c2,0.1,4-0.6,5.5-1.9C399.2,43,400.1,41.2,400.3,39.2L400.3,39.2z"/>
	<path class="st0" d="M412.3,35.9c1.8-10.1,8-15.2,18.5-15.2h1.1l-1.3,8.2H428c-4.4,0-6.9,2.3-7.7,6.9l-2.5,16.3h-8L412.3,35.9z"/>
	<path class="st0" d="M441.8,32l-3.1,20h-8l2.9-18.4c1.4-9,6.6-13.4,15.5-13.4c4,0,7,0.9,9,2.7c2.9-1.8,6.3-2.7,9.8-2.5
		c9,0,12.7,4.4,11.3,13.4l-2.9,18.4h-4.1c-2.6-0.2-3.7-1.4-3.3-3.9l2.5-16.1c0.3-3.3-1.2-4.9-4.7-4.9s-5.5,1.6-6.1,4.9l-3.1,19.9h-8
		l3.1-20c0.3-3.3-1.2-4.9-4.7-4.9C444.3,27.1,442.4,28.8,441.8,32z"/>
	<path class="st0" d="M492.5,28.9h-7.9c1.9-5.8,6.4-8.7,13.6-8.7c8.7,0,12.6,2.8,11.9,8.7l-1.7,10.7c-1.3,8.7-7.1,12.5-15.7,13.1
		c-7.6,0.6-12.3-2.9-11.2-9.8c1.3-7.5,7.1-9.5,15.2-10.3c3.4-0.4,5.3-1.4,5.6-3.1c0.1-1.8-1.4-2.7-4.7-2.7
		C494.8,26.7,493.1,27.4,492.5,28.9z M500.9,39.2l0.5-2.9c-2.1,0.8-4.3,1.5-6.6,1.9c-3.2,0.6-5.1,2.1-5.4,4.4
		c-0.2,2.5,0.9,3.7,3.4,3.7c2,0.1,4-0.6,5.5-1.9C499.8,43,500.7,41.2,500.9,39.2L500.9,39.2z"/>
	<path class="st0" d="M524.5,52.6c-9.5,0-13.4-5.5-12.1-16.2c1.7-10.7,7.3-16.1,17-16.3c7.6,0,11.6,3.4,11.9,10.2h-8.6
		c-0.6-2.1-2.1-3.3-4.6-3.3c-4.1,0-6.7,3.1-7.7,9.4s0.7,9.4,5.2,9.3c1.9,0,3.8-0.9,5.1-2.3c0.8-0.7,1.8-1.1,2.8-1.2h5.9
		C537,48.7,531.7,52.8,524.5,52.6z"/>
	<path class="st0" d="M555.6,15.4L550,51.9h-7.9l6.2-40.3h4.1c0.5,0,1,0.1,1.4,0.3s0.8,0.5,1.1,0.9s0.5,0.8,0.7,1.3
		C555.7,14.5,555.7,15,555.6,15.4z"/>
	<path class="st0" d="M582.8,39.4c-0.8,5.4-2.8,9-5.8,10.7c-3,1.6-6.3,2.4-9.6,2.4c-3,0.1-6-0.9-8.5-2.7c-2.5-1.7-3.3-5.2-2.5-10.4
		l2.9-18.9h7.9L564,41c-0.5,3.5,1,5.2,4.5,5.2c3.6,0,5.6-1.7,6.1-5.2l2.6-16.6c0.3-2.6,1.8-3.9,4.4-3.9h4L582.8,39.4z"/>
	<path class="st0" d="M596.3,24.9c1.1-1.5,2.5-2.8,4.2-3.6c1.7-0.8,3.5-1.3,5.4-1.2c8.3,0.3,11.6,5.8,10,16.4
		c-1.6,10.4-7.3,15.7-17.1,15.9s-14-4.6-12.5-14.1l4.1-26.8h4c2.6,0,3.7,1.4,3.3,4L596.3,24.9z M594.6,36.1c-1,6.3,0.6,9.5,5.1,9.5
		s7.2-3.2,8.3-9.5c0.8-6.1-1-9-5.2-9C598.4,27.1,595.8,30.1,594.6,36.1z"/>
	<path class="st0" d="M628.4,11.6c-0.1,0.1-0.2,0.2,0,0.3c3.5,2.8,7.6,2.4,7.6-0.2C636,9.2,631.9,8.8,628.4,11.6z"/>
	<path class="st0" d="M621.6,12c0.1-0.1,0.2-0.2,0-0.3c-3.4-2.8-7.6-2.4-7.6,0.1S618.1,14.7,621.6,12z"/>
	<path class="st0" d="M625.2,15.2c-0.1-0.1-0.2-0.2-0.3,0c-2.8,3.5-2.4,7.6,0.2,7.6C627.6,22.8,627.9,18.7,625.2,15.2z"/>
	<path class="st0" d="M624.8,8.4c0.1,0.1,0.2,0.2,0.3,0c2.8-3.5,2.4-7.6-0.2-7.6C622.4,0.8,622.1,4.9,624.8,8.4z"/>
	<path class="st0" d="M632.9,3.9c-1.2-1.2-5.2,2.5-5.5,5.4v0.1h0.1C630.3,9.2,634,5.1,632.9,3.9z"/>
	<path class="st0" d="M617.1,3.9c-1.1,1.2,2.6,5.2,5.4,5.5h0.1V9.3C622.3,6.5,618.3,2.8,617.1,3.9z"/>
	<path class="st0" d="M617.1,19.6c1.2,1.1,5.2-2.6,5.5-5.4v-0.1h-0.1C619.7,14.4,616,18.5,617.1,19.6z"/>
	<path class="st0" d="M632.9,19.6c1.2-1.2-2.6-5.2-5.4-5.5h-0.1v0.1C627.6,17.1,631.7,20.8,632.9,19.6z"/>
</g>
<line class="st2" x1="318.2" y1="16.2" x2="318.2" y2="55.1"/>
</svg>
