<svg id="Grupo_81" data-name="Grupo 81" xmlns="http://www.w3.org/2000/svg" xmlns:xlink="http://www.w3.org/1999/xlink" width="24.466" height="35" viewBox="0 0 24.466 35">
  <defs>
    <clipPath id="clip-path">
      <rect id="Rectángulo_301" data-name="Rectángulo 301" width="24.466" height="35" fill="none"/>
    </clipPath>
  </defs>
  <g id="Grupo_80" data-name="Grupo 80" clip-path="url(#clip-path)">
    <path id="Trazado_146" data-name="Trazado 146" d="M12.2,35c-.989-1.215-1.985-2.38-2.915-3.6-1.083-1.415-2.141-2.852-3.147-4.323-.842-1.232-1.615-2.514-2.377-3.8a33.919,33.919,0,0,1-2.2-4.415,19.329,19.329,0,0,1-1.513-5.6A11.706,11.706,0,0,1,.627,8.4a11.909,11.909,0,0,1,5.587-6.78A11.885,11.885,0,0,1,16.55.819a11.83,11.83,0,0,1,6.112,5.051,11.923,11.923,0,0,1,1.778,7.146A16.866,16.866,0,0,1,23.3,17.871a39.885,39.885,0,0,1-3.388,6.763,63.9,63.9,0,0,1-3.949,5.757c-1.147,1.489-2.362,2.925-3.548,4.384-.052.064-.112.12-.211.225m.037-18.373a4.368,4.368,0,1,0-4.376-4.353,4.355,4.355,0,0,0,4.376,4.353" transform="translate(0 0)" fill="#ec4638"/>
    <path id="Trazado_147" data-name="Trazado 147" d="M176.881,181.816a4.368,4.368,0,1,1,4.357-4.361,4.389,4.389,0,0,1-4.357,4.361" transform="translate(-164.641 -165.189)" fill="#be1a1a"/>
  </g>
</svg>
