<svg id="Grupo_68" data-name="Grupo 68" xmlns="http://www.w3.org/2000/svg" width="25" height="25" viewBox="0 0 25 25">
  <path id="Trazado_134" data-name="Trazado 134" d="M0,0H25V25H0Z" fill="none"/>
  <path id="Trazado_135" data-name="Trazado 135" d="M5,13a2.075,2.075,0,0,1,2.143-2H17.857A2.075,2.075,0,0,1,20,13v6a2.075,2.075,0,0,1-2.143,2H7.143A2.075,2.075,0,0,1,5,19Z" transform="translate(0 1)" fill="none" stroke="#000" stroke-linecap="round" stroke-linejoin="round" stroke-width="1.4"/>
  <path id="Trazado_136" data-name="Trazado 136" d="M11,16a1,1,0,1,0,1-1,1,1,0,0,0-1,1" transform="translate(0.5 0.682)" fill="none" stroke="#000" stroke-linecap="round" stroke-linejoin="round" stroke-width="1.4"/>
  <path id="Trazado_137" data-name="Trazado 137" d="M8,11V7a4,4,0,1,1,8,0v4" transform="translate(0.5)" fill="none" stroke="#000" stroke-linecap="round" stroke-linejoin="round" stroke-width="1.4"/>
</svg>
