<svg width="904" height="67" viewBox="0 0 904 67" fill="none" xmlns="http://www.w3.org/2000/svg">
<path d="M457.017 21.6973C454.344 22.8032 451.977 24.5378 450.117 26.7537H449.915C448.836 24.7251 447.094 23.1278 444.98 22.2281C442.865 21.3284 440.507 21.1807 438.297 21.8097C437.115 22.0702 436.023 22.6358 435.128 23.4502C434.903 23.63 434.544 23.9896 434.004 24.5289C433.711 24.8223 433.395 25.0927 433.06 25.3379C433.052 24.5647 432.746 23.8244 432.206 23.2704C431.663 22.7282 430.929 22.4215 430.161 22.4165H426.745C426.361 22.4109 425.979 22.4838 425.624 22.6306C425.268 22.7774 424.947 22.9951 424.678 23.2704C424.402 23.5394 424.182 23.8609 424.031 24.2159C423.881 24.5709 423.803 24.9524 423.802 25.3379V47.294C423.803 47.8557 423.91 48.4122 424.116 48.9346C424.341 49.4419 424.653 49.9059 425.038 50.3054C425.444 50.6926 425.924 50.9952 426.449 51.1958C426.973 51.3964 427.532 51.491 428.094 51.474H428.746C429.872 51.474 430.952 51.0265 431.749 50.23C432.545 49.4334 432.993 48.3531 432.993 47.2266V34.2822C432.987 32.9331 433.493 31.632 434.409 30.6416C434.843 30.1381 435.379 29.7322 435.982 29.4505C436.585 29.1586 437.245 29.005 437.915 29.001C438.597 28.9796 439.277 29.0942 439.915 29.3381C440.544 29.5785 441.118 29.9456 441.6 30.4168C442.092 30.8958 442.481 31.4691 442.746 32.1023C443.014 32.7273 443.151 33.4001 443.151 34.0799V47.1817C443.145 47.7395 443.249 48.2929 443.457 48.8105C443.665 49.3281 443.973 49.7997 444.363 50.1983C444.753 50.5968 445.218 50.9147 445.731 51.1336C446.244 51.3525 446.795 51.4681 447.353 51.474H448.32C448.881 51.4726 449.438 51.3659 449.96 51.1594C450.969 50.7254 451.773 49.9211 452.207 48.9121C452.414 48.3897 452.521 47.8333 452.522 47.2716V34.2822C452.507 32.9315 453.014 31.6271 453.938 30.6416C454.363 30.1284 454.902 29.7207 455.511 29.4505C456.072 29.1774 456.685 29.0243 457.309 29.001C457.991 28.9753 458.672 29.09 459.309 29.3381C459.944 29.5917 460.524 29.9656 461.017 30.4393C461.507 30.9107 461.897 31.4761 462.163 32.1016C462.429 32.7272 462.567 33.4 462.567 34.0799V47.1817C462.569 47.7434 462.676 48.2998 462.882 48.8222C463.099 49.3339 463.411 49.7993 463.803 50.193C464.187 50.597 464.655 50.9116 465.174 51.1144C465.694 51.3304 466.252 51.4375 466.815 51.4291C467.377 51.4375 467.936 51.3304 468.455 51.1144C468.972 50.9066 469.439 50.5927 469.826 50.193C470.211 49.7935 470.523 49.3295 470.748 48.8222C470.954 48.2998 471.061 47.7434 471.062 47.1817V36.507C471.248 32.4733 470.024 28.5008 467.601 25.2705C466.393 23.6893 464.74 22.5046 462.854 21.8681C460.969 21.2316 458.936 21.1721 457.017 21.6973Z" fill="white"/>
<path d="M500.007 22.5962H497.603C496.701 22.6021 495.838 22.9646 495.202 23.6046C494.566 24.2446 494.209 25.11 494.209 26.0121C493.675 24.6538 492.724 23.4999 491.492 22.7165C490.26 21.9331 488.812 21.5605 487.355 21.6523C485.477 21.6423 483.617 22.0249 481.894 22.7757C480.172 23.5264 478.626 24.6288 477.355 26.0121C476.005 27.4049 474.944 29.0515 474.234 30.8568C473.524 32.662 473.18 34.5901 473.22 36.5294C473.187 38.4598 473.537 40.3774 474.251 42.1713C474.964 43.9651 476.027 45.5994 477.377 46.9794C478.635 48.3631 480.165 49.4725 481.872 50.238C483.594 50.9856 485.455 51.3609 487.333 51.3391C489.076 51.0884 490.725 50.3917 492.119 49.3166C492.361 49.1448 492.635 49.0226 492.924 48.9571C493.213 48.8915 493.513 48.8838 493.805 48.9345C494.388 49.0014 494.93 49.272 495.333 49.6986C496.322 50.7773 497.131 51.3167 497.715 51.3167H501.603C501.845 51.3209 502.083 51.2669 502.3 51.1594C502.533 51.0789 502.742 50.9396 502.907 50.7548C503.093 50.5873 503.239 50.3799 503.334 50.1481C503.445 49.9257 503.492 49.6765 503.468 49.4289V26.0346C503.459 25.125 503.096 24.2547 502.457 23.6075C502.135 23.2863 501.753 23.0316 501.333 22.8581C500.913 22.6846 500.462 22.5956 500.007 22.5962ZM494.209 39.3835C494.301 40.396 494.046 41.4095 493.487 42.2584C492.927 43.1074 492.097 43.7418 491.131 44.0579C490.164 44.3939 489.13 44.4865 488.119 44.3276C487.27 44.324 486.436 44.1076 485.692 43.6983C484.94 43.3013 484.293 42.7313 483.805 42.0353C482.608 40.3861 481.991 38.3866 482.052 36.3497V36.0126C482.011 34.6539 482.272 33.3032 482.816 32.0573C483.245 30.9797 484.041 30.0883 485.063 29.5404C485.97 29.0712 486.965 28.7957 487.984 28.7313C488.999 28.6889 490.011 28.8652 490.951 29.2482C491.662 29.4523 492.321 29.8095 492.88 30.2948C493.439 30.78 493.885 31.3816 494.187 32.0573L494.209 39.3835Z" fill="white"/>
<path d="M523.649 21.3154H519.267L516.795 23.0458C516.004 23.655 515.346 24.4198 514.862 25.2931C514.419 24.4632 513.777 23.757 512.992 23.2389C512.207 22.7208 511.304 22.4072 510.367 22.3267H510.232C509.631 22.3331 509.035 22.4552 508.48 22.6863C507.93 22.9118 507.432 23.2484 507.019 23.6751C506.594 24.0985 506.257 24.6028 506.03 25.1583C505.803 25.7061 505.696 26.2961 505.715 26.8887V46.9796C505.715 47.5727 505.832 48.16 506.059 48.7077C506.287 49.2554 506.621 49.7526 507.041 50.1707C507.459 50.5913 507.957 50.9251 508.504 51.1526C509.052 51.3802 509.639 51.4971 510.232 51.4966C511.424 51.4966 512.568 51.0231 513.411 50.1802C514.254 49.3373 514.727 48.1941 514.727 47.002V34.3722C514.727 34.125 514.727 33.9003 514.727 33.6531C515.147 32.2929 516.05 31.1337 517.267 30.3945C517.97 29.827 518.78 29.4067 519.649 29.1585C520.572 28.9168 521.535 28.8633 522.48 29.0012C523.649 29.2259 524.368 28.3719 524.728 26.4842L525.402 23.4504C525.458 23.1988 525.458 22.9379 525.402 22.6863C525.335 22.4414 525.221 22.2122 525.065 22.0121C524.899 21.8124 524.692 21.6513 524.458 21.5402C524.227 21.4251 523.974 21.3636 523.716 21.3604L523.649 21.3154Z" fill="white"/>
<path d="M544.436 31.9226L552.122 23.0907C552.595 22.5624 552.9 21.9053 552.999 21.203C553.088 20.5054 552.955 19.7973 552.617 19.1804C552.363 18.5166 551.897 17.9555 551.291 17.5849C550.697 17.1996 549.997 17.0109 549.291 17.0455C548.758 17.0479 548.231 17.1548 547.74 17.3601C547.263 17.5898 546.842 17.9194 546.504 18.3265L538.211 26.7538C537.958 27.0592 537.623 27.2855 537.245 27.4055C536.863 27.5179 536.683 27.4055 536.683 27.0235V13.4498C536.699 12.8167 536.576 12.1879 536.324 11.607C536.092 11.0179 535.731 10.4881 535.267 10.0564C534.831 9.59917 534.302 9.23925 533.717 9.00018C533.134 8.75492 532.506 8.63987 531.874 8.66308C531.243 8.63987 530.614 8.75492 530.031 9.00018C529.451 9.24857 528.924 9.60729 528.481 10.0564C528.032 10.4954 527.679 11.0236 527.447 11.607C527.205 12.191 527.083 12.8177 527.087 13.4498V46.2828C527.082 46.9077 527.205 47.5271 527.447 48.1032C527.679 48.6866 528.032 49.2148 528.481 49.6538C528.924 50.1029 529.451 50.4616 530.031 50.71C530.615 50.9521 531.242 51.0744 531.874 51.0696C532.506 51.0744 533.133 50.9521 533.717 50.71C534.294 50.4682 534.815 50.1084 535.245 49.6538C535.713 49.2263 536.075 48.6953 536.301 48.1032C536.554 47.5303 536.677 46.9087 536.661 46.2828V39.2488L537.919 38.0353L545.74 49.092C546.089 49.7184 546.602 50.2387 547.223 50.5977C547.84 50.9422 548.539 51.1131 549.246 51.0921H549.448C550.238 51.1238 551.02 50.9204 551.695 50.5078C552.353 50.0942 552.87 49.4909 553.178 48.7773C553.579 48.1002 553.752 47.3127 553.673 46.53C553.628 45.762 553.336 45.029 552.841 44.4401L544.436 31.9226Z" fill="white"/>
<path d="M571.449 21.6972H569.674C567.674 21.6699 565.689 22.0364 563.831 22.7759C561.975 23.5205 560.286 24.6284 558.864 26.0345C557.423 27.3848 556.282 29.0234 555.516 30.8437C554.727 32.6489 554.343 34.605 554.392 36.5743C554.369 38.5402 554.757 40.4893 555.531 42.2965C556.305 44.1038 557.448 45.7294 558.887 47.0692C560.309 48.4754 561.997 49.5832 563.853 50.3278C565.696 51.0979 567.676 51.4877 569.674 51.4739H580.281C581.06 51.4564 581.811 51.1796 582.416 50.6874C583.001 50.2116 583.411 49.5558 583.584 48.8221C583.708 48.3126 583.708 47.7809 583.584 47.2715C583.473 46.7626 583.233 46.2907 582.888 45.9006C582.582 45.4835 582.181 45.1447 581.719 44.9118C581.249 44.6926 580.732 44.5923 580.213 44.6197H570.573C568.962 44.5923 567.397 44.0836 566.078 43.1589C564.748 42.2762 563.732 40.9934 563.179 39.4958H584.011C584.758 39.5091 585.482 39.2357 586.034 38.7317C586.302 38.4768 586.517 38.1702 586.663 37.8303C586.81 37.4904 586.886 37.1243 586.888 36.7541C586.92 34.7836 586.536 32.8286 585.762 31.0164C584.987 29.2042 583.839 27.5756 582.393 26.2368C580.986 24.7938 579.3 23.6515 577.438 22.8789C575.576 22.1064 573.577 21.7197 571.561 21.7422L571.449 21.6972ZM563.089 33.4955C563.566 32.408 564.28 31.4404 565.178 30.663C566.076 29.8855 567.136 29.3178 568.28 29.0009C569.422 28.6502 570.629 28.5656 571.809 28.7537C572.999 28.9259 574.136 29.3637 575.135 30.0347C576.419 30.8792 577.427 32.0827 578.034 33.4955H563.089Z" fill="white"/>
<path d="M604.08 23.0011C603.813 22.7008 603.483 22.463 603.113 22.3044C602.751 22.15 602.361 22.0735 601.967 22.0797H599.27V19.5852C599.265 18.601 598.937 17.6459 598.336 16.8664C597.735 16.087 596.895 15.5263 595.944 15.2704H595.832C595.153 15.1019 594.443 15.1019 593.765 15.2704C593.091 15.4052 592.46 15.6979 591.922 16.1244C591.364 16.5392 590.91 17.0776 590.596 17.6975C590.281 18.3078 590.126 18.9884 590.146 19.6751V22.1921H588.91C588.51 22.186 588.112 22.2625 587.742 22.4168C587.37 22.572 587.033 22.8014 586.753 23.091C586.478 23.3704 586.257 23.6979 586.101 24.0573C585.949 24.428 585.873 24.8253 585.877 25.2259C585.87 25.6267 585.947 26.0245 586.101 26.3945C586.251 26.7694 586.481 27.1069 586.775 27.3833C587.055 27.6684 587.392 27.8905 587.764 28.035C588.143 28.187 588.547 28.2633 588.955 28.2598H590.146V36.9343C589.994 40.359 590.656 43.771 592.079 46.8899C592.744 48.2888 593.806 49.4611 595.133 50.2604C596.46 51.0596 597.993 51.4506 599.54 51.3844C601.046 51.3844 602.192 50.3057 603.001 48.1483C603.31 47.3399 603.411 46.4665 603.293 45.6089C603.247 45.2221 603.108 44.8521 602.889 44.5302C602.666 44.2113 602.364 43.9557 602.012 43.7886L599.248 42.4852V28.1923H601.967C602.768 28.1797 603.533 27.8576 604.102 27.2934C604.395 26.9995 604.624 26.6481 604.775 26.2614C604.926 25.8746 604.995 25.4609 604.979 25.0461C604.993 24.6446 604.916 24.245 604.754 23.8775C604.589 23.5436 604.36 23.2457 604.08 23.0011Z" fill="white"/>
<path d="M423.599 54.8451C423.621 55.0125 423.609 55.1826 423.562 55.3449C423.516 55.5072 423.437 55.6583 423.33 55.7889C423.23 55.9143 423.084 55.9951 422.925 56.0136C422.787 56.0599 422.637 56.0599 422.498 56.0136C422.161 55.7215 421.959 54.7552 421.599 52.4854C421.24 50.2156 420.88 47.384 420.431 43.9681C420.206 42.1253 419.981 40.1253 419.757 38.0128C419.532 35.9003 419.285 33.7879 418.992 31.6529C418.543 27.488 418.138 23.3904 417.779 19.3602C417.397 15.3376 417.06 11.8992 416.745 9.04513C415.515 7.48078 413.861 6.30289 411.981 5.65172C409.885 5.24197 407.756 5.02383 405.621 5H405.217C404.631 5.07616 404.065 5.26707 403.553 5.56182C403.024 5.90717 402.597 6.38838 402.317 6.95515C400.938 9.40606 399.787 11.9788 398.879 14.6409C397.651 17.907 396.475 21.3978 395.351 25.1133C394.722 27.1359 394.429 28.1696 393.823 30.2596C393.486 30.2596 392.497 30.0798 392.272 29.9899C391.185 30.1308 390.195 30.6864 389.508 31.5406C389.106 32.1453 388.902 32.8599 388.924 33.5856C388.891 34.3234 389.129 35.0478 389.592 35.6229C390.055 36.1979 390.713 36.5843 391.441 36.7094H392.182C391.912 37.8105 391.665 38.9567 391.418 39.9904C390.632 43.0692 390.699 43.1591 390.137 45.9233C389.575 48.6875 389.171 51.0022 388.901 52.9348C388.996 53.3927 389.18 53.8277 389.44 54.2158C389.709 54.5965 390.053 54.9178 390.452 55.1597C391.286 55.9339 392.371 56.3808 393.508 56.4182C394.067 56.3965 394.623 56.3289 395.171 56.2159C396.432 56.0415 397.645 55.6216 398.744 54.9799C398.744 54.7327 398.879 54.1259 399.014 53.2045C399.149 52.2831 399.418 51.2044 399.688 49.8561C400.16 47.3391 400.452 47.0245 401.149 43.4288C401.598 41.1815 402.048 39.7657 402.542 37.5858H404.542C405.621 37.5858 407.396 37.5858 408.475 37.5858C408.475 39.4511 408.655 40.2151 408.835 42.0804C408.905 43.0831 409.033 44.0811 409.217 45.0693C409.531 46.8671 409.868 48.5301 410.273 50.0808C410.888 52.6901 411.928 55.1805 413.352 57.4519C414.094 58.6496 415.082 59.676 416.251 60.4633C417.473 61.1668 418.827 61.6106 420.228 61.7667C420.482 61.801 420.739 61.801 420.993 61.7667C421.348 61.7849 421.705 61.747 422.049 61.6544C422.496 61.495 422.908 61.2508 423.262 60.9352C424.033 59.9069 424.429 58.6463 424.386 57.362V57.1822C424.424 56.7594 424.374 56.3332 424.239 55.9308C424.103 55.5284 423.886 55.1586 423.599 54.8451ZM408.16 16.7534C408.048 19.3827 407.981 22.6413 407.981 26.5066C407.981 28.1022 408.116 28.3494 408.16 30.1023H407.262L403.531 30.2821L403.913 28.664C404.542 25.7201 405.014 24.3942 405.599 21.9221C406.183 19.4501 406.745 17.2927 407.127 15.6747C407.396 14.8207 407.599 14.1465 407.756 13.6071C407.845 13.3098 407.981 13.029 408.16 12.7756C408.339 14.0967 408.324 15.4367 408.115 16.7534H408.16Z" fill="white"/>
<path d="M363.686 38.4171C363.612 38.3252 363.521 38.2488 363.417 38.1924C363.417 38.1924 363.259 38.1924 363.125 38.4171C357.754 45.159 358.428 53.0695 363.394 53.0695C368.361 53.0695 369.035 45.0691 363.664 38.4171" fill="white"/>
<path d="M370.159 31.4058C370.046 31.5406 369.956 31.608 369.956 31.6979C369.956 31.7878 369.956 31.8328 370.159 31.9676C376.9 37.3386 384.811 36.6644 384.833 31.6979C384.856 26.7314 376.833 26.0572 370.159 31.4507" fill="white"/>
<path d="M363.147 24.9112C363.282 25.046 363.349 25.1359 363.439 25.1359C363.529 25.1359 363.596 25.1359 363.709 24.9112C369.08 18.1693 368.406 10.2588 363.439 10.2588C358.473 10.2588 357.798 18.2592 363.169 24.9112" fill="white"/>
<path d="M356.675 31.9449C356.81 31.8101 356.877 31.7427 356.877 31.6528C356.877 31.5629 356.877 31.4955 356.675 31.3831C349.933 25.9896 342 26.6863 342 31.6528C342 36.6193 350 37.2935 356.675 31.9" fill="white"/>
<path d="M368.248 36.2373C368.136 36.2373 368.069 36.2373 368.046 36.2373C368.026 36.2715 368.016 36.3102 368.016 36.3497C368.016 36.3891 368.026 36.4279 368.046 36.4621C368.608 41.7657 376.361 48.8671 378.609 46.7547C380.856 44.6422 373.62 36.7767 368.293 36.1924" fill="white"/>
<path d="M367.979 26.754C367.979 26.8888 367.979 26.9562 367.979 26.9787C367.979 27.0012 368.091 26.9787 368.226 26.9787C373.53 26.3944 380.631 18.6637 378.519 16.4164C376.406 14.1691 368.518 21.3829 367.934 26.6866" fill="white"/>
<path d="M358.563 27.1135C358.698 27.1135 358.765 27.1135 358.788 27.1135C358.81 27.1135 358.788 27.0011 358.788 26.8888C358.203 21.5627 350.45 14.4612 348.203 16.5737C345.955 18.6861 353.192 26.5517 358.495 27.136" fill="white"/>
<path d="M358.855 36.4848C358.855 36.4848 358.855 36.305 358.855 36.2601C358.78 36.2479 358.704 36.2479 358.63 36.2601C353.326 36.8444 346.225 44.5976 348.337 46.8224C350.45 49.0472 358.27 41.7884 358.855 36.4848Z" fill="white"/>
<path d="M682.141 33.4182C681.834 33.6985 681.793 33.7556 682.141 34.0981C689.599 40.0772 698.516 39.2883 698.521 33.74C698.526 28.1917 689.599 27.4132 682.151 33.4182" fill="white"/>
<path d="M667.421 34.0928C667.727 33.8073 667.764 33.7606 667.421 33.4129C659.989 27.3974 651.062 28.1552 651.036 33.7035C651.01 39.2518 659.932 40.0563 667.411 34.0928" fill="white"/>
<path d="M675.113 41.1044C674.833 40.8086 674.776 40.767 674.428 41.1044C668.438 48.5523 669.238 57.4743 674.76 57.4794C680.282 57.4846 681.097 48.5679 675.113 41.1044Z" fill="white"/>
<path d="M674.449 26.375C674.729 26.6813 674.791 26.7124 675.139 26.375C681.108 18.9167 680.329 9.99481 674.765 10C669.201 10.0052 668.449 18.9271 674.449 26.375Z" fill="white"/>
<path d="M691.732 16.7886C689.22 14.2974 680.5 22.2851 679.795 28.4718C679.765 28.5054 679.749 28.5492 679.75 28.5942C679.751 28.6392 679.77 28.6819 679.802 28.7138C679.834 28.7456 679.876 28.764 679.921 28.7654C679.966 28.7667 680.01 28.7508 680.044 28.7209C686.23 28.0202 694.218 19.3007 691.727 16.7835" fill="white"/>
<path d="M657.814 16.7732C655.323 19.2853 663.31 28.0048 669.497 28.7107C669.574 28.7265 669.654 28.7265 669.731 28.7107C669.745 28.6334 669.745 28.5544 669.731 28.4771C669.025 22.2904 660.305 14.3027 657.793 16.794" fill="white"/>
<path d="M657.804 50.6914C660.311 53.1827 669.03 45.195 669.741 39.0083C669.756 38.9312 669.756 38.8519 669.741 38.7747C669.662 38.7593 669.581 38.7593 669.503 38.7747C663.316 39.4754 655.328 48.1949 657.825 50.7122" fill="white"/>
<path d="M691.716 50.7068C694.208 48.1948 686.22 39.4752 680.038 38.7694C679.96 38.7533 679.878 38.7533 679.8 38.7694C679.784 38.8464 679.784 38.9259 679.8 39.0029C680.5 45.1897 689.22 53.1773 691.737 50.6861" fill="white"/>
<path d="M727.596 42.1481V47.7327C727.596 52.7361 724.404 55.8398 718.695 55.8398H711.818C711.019 55.8398 710.744 55.5647 710.744 54.8018V35.0791C710.744 34.3161 711.019 34.041 711.818 34.041H718.695C724.404 34.041 727.596 37.1447 727.596 42.1481ZM718.726 37.6326H714.61V52.2482H718.726C721.949 52.2482 723.761 50.6911 723.761 47.7639V42.1169C723.761 39.2001 721.949 37.6326 718.726 37.6326Z" fill="white"/>
<path d="M748.388 40.7985C748.388 43.9905 746.883 46.1392 744.335 46.9956C744.751 47.3645 745.086 47.815 745.321 48.3191L748.694 54.7965C749.001 55.3778 748.944 55.8345 748.175 55.8345H746.395C745.072 55.8345 744.677 55.6788 744.319 54.9107L741.724 49.6945C740.925 48.0077 740.167 47.5458 738.091 47.5458H735.818V54.8121C735.818 55.5802 735.542 55.8501 734.78 55.8501H733.03C732.231 55.8501 731.956 55.575 731.956 54.8121V35.0893C731.956 34.3264 732.231 34.0513 733.03 34.0513H741.501C745.793 34.0409 748.388 36.5582 748.388 40.7985ZM741.122 37.6325H735.812V43.9594H741.122C743.198 43.9594 744.345 42.8539 744.345 40.7985C744.345 38.7432 743.224 37.6325 741.122 37.6325Z" fill="white"/>
<path d="M756.142 53.8105V54.0908C756.142 55.5907 755.686 56.0527 754.18 56.0527H753.968C752.462 56.0527 752 55.5907 752 54.0908V53.8105C752 52.3417 752.462 51.8486 753.968 51.8486H754.18C755.686 51.859 756.142 52.3417 756.142 53.8105Z" fill="white"/>
<path d="M776.098 33.5845C781.714 33.5845 784.849 36.6519 784.849 41.5929V48.2883C784.849 53.2293 781.735 56.3019 776.098 56.3019C770.462 56.3019 767.317 53.2293 767.317 48.2883V41.5929C767.317 36.6519 770.452 33.5845 776.098 33.5845ZM776.098 37.1761C772.938 37.1761 771.189 38.7331 771.189 41.5618V48.309C771.189 51.1636 772.938 52.6947 776.098 52.6947C779.259 52.6947 781.008 51.1636 781.008 48.309V41.5618C781.008 38.7072 779.228 37.1761 776.098 37.1761Z" fill="white"/>
<path d="M796.849 33.5845C801.24 33.5845 803.482 35.1779 804.925 38.2193C805.262 38.9252 805.075 39.2937 804.338 39.631L802.652 40.368C801.977 40.6743 801.702 40.5497 801.333 39.849C800.503 38.2245 799.257 37.2539 796.849 37.2539C793.87 37.2539 792.396 38.1778 792.396 40.0774C792.396 42.2884 794.913 42.6725 797.71 42.9943C801.344 43.3939 805.496 44.2866 805.496 49.4145C805.496 53.494 802.382 56.2915 796.745 56.2915C791.991 56.2915 789.562 54.4802 788.306 51.1636C788.026 50.3955 788.212 50.0581 788.949 49.809L790.636 49.1966C791.342 48.9526 791.648 49.1031 791.96 49.8401C792.723 51.6515 794.352 52.6947 796.745 52.6947C799.911 52.6947 801.629 51.7138 801.629 49.5028C801.629 47.3852 799.356 46.9077 796.776 46.6482C793.034 46.2485 788.425 45.6672 788.425 40.2954C788.436 36.4079 791.321 33.5845 796.849 33.5845Z" fill="white"/>
<path d="M826.075 35.0529L818.736 54.9729C818.673 55.2545 818.505 55.5012 818.265 55.6617C818.025 55.8221 817.733 55.884 817.449 55.8344H815.819C815.113 55.8344 814.744 55.6787 814.532 55.004L807.162 35.0477C806.918 34.373 807.099 34.0356 807.836 34.0356H809.393C810.681 34.0356 811.049 34.2225 811.298 34.9595L815.777 48.0336C816.111 49.1006 816.378 50.1875 816.577 51.2878H816.763C816.82 51.1996 817.101 49.5076 817.558 48.0647L822.011 34.9595C822.255 34.2225 822.623 34.0356 823.916 34.0356H825.389C826.163 34.0408 826.35 34.3782 826.075 35.0529Z" fill="white"/>
<path d="M844.521 55.8401H842.927C841.635 55.8401 841.266 55.6533 841.022 54.9163L839.611 50.9561H831.14L829.698 54.9163C829.448 55.6533 829.08 55.8401 827.793 55.8401H826.381C825.613 55.8401 825.426 55.5027 825.675 54.828L833.346 34.8717C833.411 34.5903 833.581 34.3444 833.821 34.1842C834.062 34.024 834.354 33.9617 834.639 34.0102H836.263C836.969 34.0102 837.301 34.1659 837.555 34.8406L845.227 54.828C845.476 55.4924 845.289 55.8401 844.521 55.8401ZM835.469 37.5706H835.251C835.202 38.835 834.975 40.0861 834.576 41.2868L832.215 47.7953H838.536L836.206 41.318C835.818 40.1012 835.57 38.8439 835.469 37.5706Z" fill="white"/>
<path d="M852.322 35.0839V52.2478H861.145C861.913 52.2478 862.183 52.5229 862.183 53.2859V54.791C862.183 55.5592 861.908 55.8291 861.145 55.8291H849.54C848.746 55.8291 848.465 55.554 848.465 54.791V35.0683C848.465 34.3054 848.746 34.0303 849.54 34.0303H851.289C852.041 34.0407 852.322 34.3209 852.322 35.0839Z" fill="white"/>
<path d="M882.295 42.1481V47.7327C882.295 52.7361 879.103 55.8398 873.394 55.8398H866.517C865.717 55.8398 865.442 55.5647 865.442 54.8018V35.0791C865.442 34.3161 865.717 34.041 866.517 34.041H873.394C879.087 34.041 882.295 37.1447 882.295 42.1481ZM873.425 37.6326H869.319V52.2482H873.435C876.658 52.2482 878.47 50.6911 878.47 47.7639V42.1169C878.444 39.2001 876.632 37.6326 873.409 37.6326H873.425Z" fill="white"/>
<path d="M894.803 33.5845C900.424 33.5845 903.554 36.6519 903.554 41.5929V48.2883C903.554 53.2293 900.44 56.3019 894.803 56.3019C889.167 56.3019 886.027 53.2293 886.027 48.2883V41.5929C886.027 36.6519 889.156 33.5845 894.803 33.5845ZM894.803 37.1761C891.642 37.1761 889.893 38.7331 889.893 41.5618V48.309C889.893 51.1636 891.642 52.6947 894.803 52.6947C897.964 52.6947 899.718 51.1636 899.718 48.309V41.5618C899.718 38.7072 897.938 37.1761 894.803 37.1761Z" fill="white"/>
<path d="M722.956 12.4136V13.6697C722.956 14.3081 722.723 14.5364 722.058 14.5364H714.242V19.2387H720.807C721.472 19.2387 721.7 19.4671 721.7 20.1055V21.3615C721.7 22.0259 721.472 22.2283 720.807 22.2283H714.242V28.8198C714.242 29.4582 714.013 29.6918 713.37 29.6918H711.917C711.252 29.6918 711.024 29.4582 711.024 28.8198V12.4136C711.024 11.7753 711.252 11.5469 711.917 11.5469H722.058C722.723 11.5624 722.956 11.7908 722.956 12.4136Z" fill="white"/>
<path d="M738.667 29.7068H737.338C736.264 29.7068 735.958 29.5511 735.755 28.9387L734.582 25.6429H727.529L726.325 28.9387C726.122 29.5511 725.806 29.7068 724.768 29.7068H723.595C722.956 29.7068 722.8 29.4213 723.003 28.8608L729.392 12.2522C729.446 12.0181 729.587 11.8134 729.787 11.6802C729.986 11.547 730.23 11.4954 730.466 11.536H731.779C732.366 11.536 732.646 11.6657 732.854 12.2263L739.238 28.8608C739.461 29.4213 739.305 29.7068 738.667 29.7068ZM731.131 14.4892H730.949C730.914 15.5489 730.725 16.5978 730.388 17.6033L728.421 23.0218H733.684L731.743 17.6033C731.425 16.5908 731.22 15.5465 731.131 14.4892Z" fill="white"/>
<path d="M755.654 17.1834C755.654 19.8408 754.404 21.6314 752.281 22.3477C752.625 22.6535 752.904 23.026 753.101 23.4428L755.909 28.8354C756.163 29.3233 756.116 29.7074 755.473 29.7074H753.994C752.893 29.7074 752.561 29.5776 752.255 28.9392L750.111 24.595C749.447 23.1885 748.829 22.8044 747.07 22.8044H745.175V28.8354C745.175 29.4738 744.947 29.7074 744.309 29.7074H742.85C742.186 29.7074 741.958 29.4738 741.958 28.8354V12.4136C741.958 11.7753 742.186 11.5469 742.85 11.5469H749.904C753.438 11.5624 755.654 13.6593 755.654 17.1834ZM749.597 14.552H745.175V19.8149H749.597C751.31 19.8149 752.281 18.8962 752.281 17.1834C752.281 15.4707 751.315 14.552 749.577 14.552H749.597Z" fill="white"/>
<path d="M776.379 12.4136V28.8198C776.379 29.4582 776.176 29.6918 775.512 29.6918H774.209C773.545 29.6918 773.337 29.4582 773.337 28.8198V21.0345C773.357 19.3216 773.564 17.616 773.955 15.9482H773.773C773.239 17.5706 772.543 19.1354 771.697 20.6193L769.196 25.0414C769.116 25.2359 768.976 25.4001 768.797 25.5102C768.618 25.6203 768.409 25.6706 768.199 25.6538H767.379C767.167 25.6844 766.952 25.6399 766.77 25.528C766.588 25.4161 766.451 25.2439 766.383 25.0414L763.829 20.5934C762.965 19.1323 762.304 17.561 761.862 15.9222H761.685C762.039 17.6031 762.213 19.3168 762.204 21.0345V28.8198C762.204 29.4582 762.002 29.6918 761.338 29.6918H760.108C759.443 29.6918 759.215 29.4582 759.215 28.8198V12.4136C759.215 11.7753 759.443 11.5469 760.108 11.5469H761.234C761.95 11.5469 762.178 11.6766 762.459 12.2112L767.768 21.756L773.083 12.2735C773.163 12.0354 773.326 11.8343 773.543 11.7074C773.759 11.5804 774.015 11.5363 774.261 11.5832H775.512C776.176 11.5624 776.379 11.7908 776.379 12.4136Z" fill="white"/>
<path d="M794.752 29.7072H793.423C792.349 29.7072 792.043 29.5515 791.835 28.939L790.662 25.6433H783.609L782.41 28.939C782.202 29.5515 781.891 29.7072 780.853 29.7072H779.675C779.036 29.7072 778.886 29.4217 779.088 28.8612L785.477 12.2526C785.53 12.0189 785.67 11.8143 785.869 11.681C786.068 11.5477 786.31 11.4959 786.546 11.5363H787.901C788.493 11.5363 788.773 11.6661 788.975 12.2266L795.364 28.8612C795.541 29.4217 795.39 29.7072 794.752 29.7072ZM787.211 14.4896H787.034C786.996 15.5489 786.807 16.5975 786.474 17.6037L784.507 23.0222H789.769L787.833 17.6037C787.511 16.592 787.302 15.5475 787.211 14.4896Z" fill="white"/>
<path d="M804.359 11.1777C808.111 11.1777 810.338 12.6881 811.309 15.4441C811.537 16.0617 811.381 16.342 810.79 16.5703L809.388 17.0582C808.771 17.2347 808.516 17.1568 808.288 16.5392C807.727 14.9822 806.497 14.1881 804.38 14.1881C801.748 14.1881 800.29 15.4648 800.29 17.8212V23.4681C800.29 25.8192 801.748 27.1012 804.38 27.1012C806.523 27.1012 807.727 26.2864 808.288 24.7293C808.542 24.0857 808.807 23.9612 809.409 24.2103L810.79 24.6982C811.402 24.9265 811.558 25.2172 811.355 25.8192C810.385 28.5804 808.158 30.1115 804.38 30.1115C799.677 30.1115 797.072 27.558 797.072 23.4421V17.8212C797.051 13.7365 799.657 11.1777 804.359 11.1777Z" fill="white"/>
<path d="M815.445 11.562H816.899C817.537 11.562 817.765 11.7904 817.765 12.4288V28.835C817.765 29.4734 817.537 29.7069 816.899 29.7069H815.44C814.776 29.7069 814.547 29.4734 814.547 28.835V12.4132C814.553 11.7904 814.781 11.562 815.445 11.562Z" fill="white"/>
<path d="M836.102 29.7071H834.774C833.699 29.7071 833.393 29.5514 833.217 28.9389L832.038 25.6432H824.985L823.786 28.9389C823.578 29.5514 823.267 29.7071 822.229 29.7071H821.051C820.412 29.7071 820.262 29.4216 820.464 28.8611L826.853 12.2525C826.906 12.0178 827.047 11.8123 827.247 11.6789C827.447 11.5455 827.691 11.4944 827.928 11.5362H829.277C829.869 11.5362 830.149 11.666 830.352 12.2265L836.741 28.8611C836.907 29.4216 836.756 29.7071 836.102 29.7071ZM828.577 14.4895H828.4C828.362 15.5488 828.173 16.5974 827.839 17.6036L825.872 23.0221H831.135L829.194 17.6036C828.873 16.5917 828.666 15.5472 828.577 14.4895Z" fill="white"/>
<path d="M845.367 11.1777C849 11.1777 850.884 12.5064 852.114 15.0392C852.394 15.6257 852.239 15.932 851.626 16.2122L850.22 16.8247C849.659 17.079 849.431 16.9804 849.124 16.3939C848.434 15.0392 847.412 14.2451 845.393 14.2451C842.912 14.2451 841.687 15.0133 841.687 16.5963C841.687 18.4336 843.763 18.7658 846.109 19.0253C849.124 19.3575 852.597 20.0945 852.597 24.366C852.597 27.7604 850.002 30.0752 845.33 30.0752C841.37 30.0752 839.351 28.5701 838.303 25.8089C838.075 25.1705 838.225 24.8902 838.822 24.6878L840.228 24.1688C840.82 23.9664 841.074 24.0909 841.329 24.6878C841.967 26.1929 843.322 27.0597 845.315 27.0597C847.946 27.0597 849.379 26.2449 849.379 24.4023C849.379 22.6429 847.484 22.2588 845.341 22.0252C842.227 21.6982 838.391 21.2104 838.391 16.7364C838.365 13.5289 840.773 11.1777 845.367 11.1777Z" fill="white"/>
<path d="M44.7419 51.9967C43.1223 52.8034 41.3716 53.3146 39.5723 53.5061C38.0275 53.6796 36.4748 53.773 34.9203 53.7858C32.4851 53.8683 30.0975 53.0985 28.169 51.6093C26.3472 50.1626 25.6581 47.7658 26.1018 44.4191C26.5036 41.2974 27.7098 39.0662 29.7202 37.7256C31.9304 36.306 34.4277 35.3936 37.0325 35.054C38.5837 34.8466 39.5402 34.6811 40.2169 34.6087C43.539 34.1565 45.2981 33.1883 45.4942 31.7041C45.547 31.4662 45.5511 31.2201 45.5063 30.9806C45.4616 30.7412 45.3688 30.5132 45.2337 30.3105C45.0985 30.1078 44.9238 29.9345 44.7199 29.801C44.5161 29.6676 44.2874 29.5767 44.0475 29.534C43.0448 29.2105 42.0001 29.0361 40.9467 29.0164C39.9801 29.0036 39.0185 29.1558 38.1031 29.4665C37.2547 29.7597 36.5428 30.3531 36.1018 31.135H28.5837C29.165 28.8469 30.5302 26.835 32.4416 25.4494C34.6706 23.7283 37.6423 22.8673 41.3566 22.8662C45.5232 22.8662 48.5559 23.5724 50.4549 24.9848C52.4192 26.4701 53.2272 28.5513 52.8789 31.2282L51.5688 41.3746C51.1863 44.3484 50.3472 46.6728 49.0515 48.3477C47.9251 49.8812 46.4472 51.122 44.7419 51.9661V51.9967ZM44.7419 38.2529C43.2831 38.8854 41.7644 39.37 40.2089 39.6996L37.5726 40.2574C36.1822 40.6287 35.0811 40.9711 34.4702 41.7041C33.8764 42.4035 33.4944 43.2578 33.3691 44.1667C33.2783 44.6337 33.2905 45.1148 33.4049 45.5765C33.5193 46.0382 33.7331 46.4694 34.0314 46.8399C34.6208 47.4368 35.5494 47.7332 36.8171 47.7289C38.6947 47.8013 40.5309 47.1649 41.961 45.9462C43.3436 44.6658 44.2026 42.9185 44.3722 41.0418L44.7419 38.2529Z" fill="white"/>
<path d="M138.797 51.9967C137.178 52.8036 135.428 53.3148 133.629 53.5061C132.084 53.6796 130.532 53.773 128.977 53.7858C126.542 53.8659 124.155 53.0964 122.226 51.6093C120.404 50.1626 119.715 47.7658 120.159 44.4191C120.562 41.2974 121.759 39.0662 123.751 37.7256C125.945 36.2721 128.451 35.3568 131.065 35.054C132.258 34.8933 133.571 34.6811 134.25 34.6087C137.572 34.1565 139.332 33.1883 139.532 31.7041C139.584 31.466 139.586 31.2199 139.54 30.9807C139.471 30.6201 139.295 30.2887 139.034 30.0304C138.773 29.7721 138.44 29.599 138.079 29.534C137.076 29.2104 136.031 29.036 134.978 29.0164C134.01 29.0036 133.048 29.1558 132.131 29.4665C131.282 29.7594 130.571 30.3529 130.13 31.135H122.639C123.224 28.8485 124.588 26.8377 126.497 25.4494C128.723 23.7283 131.695 22.8673 135.413 22.8662C139.579 22.8662 142.61 23.5724 144.505 24.9848C146.473 26.4701 147.282 28.5513 146.934 31.2282L145.626 41.3746C145.243 44.3484 144.404 46.6728 143.108 48.3477C141.983 49.8832 140.505 51.1245 138.797 51.9661V51.9967ZM138.797 38.2529C137.339 38.8849 135.821 39.3695 134.266 39.6996L131.623 40.2574C130.237 40.6287 129.127 40.9711 128.522 41.7041C127.935 42.405 127.554 43.2554 127.421 44.1603C127.33 44.6281 127.342 45.1102 127.456 45.573C127.57 46.0358 127.784 46.4682 128.082 46.8399C128.673 47.4368 129.603 47.7332 130.869 47.7289C132.747 47.8011 134.583 47.1648 136.013 45.9462C137.396 44.6664 138.256 42.9188 138.424 41.0418L138.797 38.2529Z" fill="white"/>
<path d="M169.308 44.0882H174.886C173.827 47.0025 171.864 49.502 169.284 51.2221C166.607 52.9825 163.456 53.8837 160.253 53.8053C156.015 53.8053 152.882 52.4272 150.856 49.6709C148.825 46.9918 148.136 43.1634 148.789 38.1856C149.399 33.4275 151.029 29.7094 153.679 27.0314C156.411 24.2751 159.894 22.897 164.127 22.897C168.585 22.897 171.871 24.2338 173.984 26.9076C175.136 28.6099 175.877 30.5561 176.149 32.5932H168.329C168.128 31.9901 167.825 31.4262 167.432 30.9263C166.597 29.8932 165.289 29.3761 163.508 29.3751C161.959 29.343 160.455 29.897 159.297 30.9263C157.763 32.4148 156.777 34.8683 156.339 38.2868C155.901 41.7054 156.257 44.1166 157.408 45.5204C158.215 46.7132 159.593 47.309 161.544 47.3079C162.703 47.3337 163.85 47.0655 164.878 46.5283C165.124 46.4447 165.35 46.313 165.545 46.1409L166.233 45.5204C166.535 45.189 166.873 44.8924 167.241 44.6363C167.85 44.2295 168.576 44.0336 169.308 44.0785" fill="white"/>
<path d="M180.239 50.5487C178.785 49.0862 177.854 47.1859 177.588 45.1412C177.209 42.7983 177.177 40.4125 177.493 38.0603C177.772 35.9948 178.312 33.973 179.101 32.0436C179.837 30.1613 180.954 28.4513 182.382 27.0203C184.515 24.8298 187.331 23.4325 190.366 23.0595C193.103 22.6181 195.906 22.8673 198.522 23.7844C199.805 24.2925 200.961 25.0747 201.91 26.0762C202.859 27.0777 203.578 28.2743 204.016 29.5826C204.97 32.0436 205.227 34.8968 204.807 38.1744C204.574 40.2817 204.044 42.3453 203.232 44.3037C202.578 45.8683 201.708 47.3335 200.647 48.6567C198.768 50.9692 196.162 52.5791 193.253 53.2251C190.825 53.8944 188.269 53.9496 185.815 53.3859C183.391 52.8329 181.525 51.8856 180.218 50.5439L180.239 50.5487ZM188.101 30.9071C186.317 32.6282 185.283 35.1744 185 38.5458C184.717 41.9172 185.042 44.2748 185.976 45.6186C186.512 46.3399 187.266 46.8692 188.127 47.128C189.213 47.5348 190.402 47.5732 191.512 47.2373C192.879 46.7776 194.066 45.8984 194.904 44.7249C195.968 43.3907 196.729 41.2351 197.188 38.258C197.532 35.5789 197.359 33.5717 196.67 32.2365C196.173 31.063 195.231 30.1342 194.05 29.6533C192.969 29.2824 191.798 29.2622 190.705 29.5954C189.751 29.8295 188.859 30.2683 188.091 30.8814" fill="white"/>
<path d="M231.32 62.6078C231.185 63.6492 230.665 64.6024 229.864 65.281C229.099 65.9975 228.09 66.3962 227.041 66.3966H223.248L226.831 36.3917C227.519 31.191 229.501 27.6417 232.778 25.7439C235.893 23.8973 239.445 22.9161 243.066 22.9019C244.946 22.8988 246.81 23.2494 248.56 23.9355C250.214 24.5229 251.654 25.5923 252.695 27.0057C254.554 29.8992 255.19 33.6172 254.603 38.1599C253.998 42.843 252.394 46.6334 249.79 49.5311C247.192 52.357 244.148 53.77 240.656 53.77C239.006 53.8164 237.368 53.4727 235.876 52.7669C234.479 52.0029 233.384 50.7848 232.773 49.3141L231.32 62.6078ZM246.853 38.5055C247.231 35.6008 246.958 33.3729 246.049 31.812C245.141 30.2512 243.638 29.4716 241.549 29.4716C240.594 29.4541 239.649 29.6561 238.785 30.0619C237.921 30.4677 237.161 31.0665 236.565 31.812C235.334 33.2234 234.534 35.4562 234.14 38.5055C233.77 41.3282 234.055 43.4479 234.993 44.8646C235.903 46.4175 237.4 47.196 239.485 47.2003C240.421 47.2073 241.347 47.0006 242.191 46.5959C243.036 46.1911 243.777 45.599 244.358 44.8646C245.678 43.2958 246.509 41.1761 246.853 38.5055Z" fill="white"/>
<path d="M3.92382 53.2266H0L4.40928 18.8702C4.55015 17.7596 5.10394 16.7427 5.96048 16.0218C6.77432 15.2673 7.8438 14.8492 8.95358 14.8516H32.818L31.9596 21.4422H11.8888L10.8182 29.7126H25.7677L25.4462 32.2974C25.3029 33.4095 24.7456 34.4266 23.8853 35.1458C23.0708 35.899 22.0016 36.3165 20.8922 36.3144H9.97111L8.30095 49.2513V49.412C8.16635 50.4574 7.64783 51.4154 6.84619 52.0997C6.07617 52.8117 5.06576 53.2066 4.01706 53.2057L3.92382 53.2266Z" fill="white"/>
<path d="M57.212 53.2266H53.1934L55.0484 38.8414C55.3155 36.2868 56.072 33.8075 57.2763 31.5387C58.2905 29.6748 59.7019 28.0565 61.4107 26.7983C63.0039 25.6655 64.7908 24.8337 66.6832 24.3437C68.6237 23.8279 70.6229 23.5653 72.6308 23.5625H73.7561L72.7225 31.4809H70.1344C67.9788 31.4809 66.3087 31.9985 65.1416 33.0321C63.9746 34.0657 63.2336 35.7037 62.9475 37.9429L61.5168 49.396V49.4218C61.3775 50.4647 60.8563 51.419 60.054 52.0998C59.2886 52.8164 58.2798 53.2157 57.2313 53.217L57.212 53.2266Z" fill="white"/>
<path d="M209.694 53.2266H205.676L207.531 38.8414C207.798 36.2868 208.554 33.8075 209.759 31.5387C210.771 29.675 212.181 28.0567 213.888 26.7983C215.482 25.6658 217.268 24.834 219.161 24.3437C221.105 23.828 223.108 23.5654 225.12 23.5625H226.232L225.198 31.4809H222.614C220.46 31.4809 218.795 31.9979 217.621 33.0321C216.446 34.0662 215.714 35.7031 215.425 37.9429L213.993 49.396V49.4218C213.857 50.4649 213.337 51.4199 212.535 52.0998C211.77 52.8167 210.761 53.216 209.712 53.217L209.694 53.2266Z" fill="white"/>
<path d="M108.856 53.2183L111.285 34.2744C111.513 32.4852 111.147 31.1736 110.169 30.3714C109.205 29.5518 107.973 29.1142 106.707 29.1417C105.348 29.1466 104.025 29.5766 102.923 30.3714C101.738 31.188 101.031 32.4852 100.803 34.2744L100.597 35.8256L98.8497 49.399C98.6933 50.4322 98.1793 51.3777 97.3974 52.0709C96.6155 52.7642 95.6151 53.1611 94.5706 53.1926H90.6838L92.9342 35.7998L93.1352 34.2486C93.3634 32.4595 92.9905 31.1478 92.0196 30.3457C91.0546 29.5251 89.8219 29.0875 88.5555 29.116C87.2148 29.1133 85.9093 29.5447 84.8342 30.3457C83.6817 31.1623 82.9953 32.4595 82.767 34.2486L80.8188 49.3781C80.6807 50.421 80.1593 51.3752 79.356 52.0545C78.59 52.7695 77.5811 53.167 76.5333 53.1669H72.4985L74.749 35.7725C75.392 30.7101 77.1479 27.3264 80.0166 25.6214C82.7708 23.9446 85.9021 22.9867 89.1229 22.8356C90.7898 22.8304 92.4516 23.0176 94.0755 23.3934C95.6418 23.7518 97.0844 24.5208 98.2549 25.6214C99.5049 24.6485 100.943 23.9447 102.478 23.5542C104.061 23.1464 105.683 22.904 107.316 22.8308C110.411 22.7842 113.447 23.6862 116.014 25.4156C118.541 27.1378 119.472 30.5954 118.806 35.7886L117.327 47.2177L117.043 49.3717C116.907 50.4146 116.387 51.3694 115.585 52.0497C114.82 52.7648 113.811 53.1619 112.764 53.1604L108.856 53.2183Z" fill="white"/>
<path d="M276.532 24.5522C276.308 24.3191 276.268 24.2822 276.014 24.5522C271.29 30.4291 271.88 37.473 276.278 37.473C280.676 37.473 281.256 30.4178 276.532 24.5522Z" fill="white"/>
<path d="M289.629 32.0979C291.598 30.1191 285.289 23.244 280.419 22.6911C280.357 22.6798 280.294 22.6798 280.232 22.6911C280.219 22.7525 280.219 22.816 280.232 22.8775C280.774 27.7674 287.649 34.0671 289.629 32.0979Z" fill="white"/>
<path d="M282.077 18.4728C281.839 18.6898 281.807 18.7413 282.077 18.9904C287.957 23.7035 295 23.0782 295 18.7059C295 14.3336 287.954 13.7389 282.077 18.4728Z" fill="white"/>
<path d="M289.644 5.35455C287.659 3.39023 280.785 9.69471 280.232 14.5653C280.219 14.6268 280.219 14.6903 280.232 14.7518C280.295 14.763 280.36 14.763 280.423 14.7518C285.318 14.2085 291.607 7.33495 289.644 5.35455Z" fill="white"/>
<path d="M276.019 12.9224C276.243 13.1651 276.289 13.1908 276.537 12.9224C281.245 7.04551 280.614 0 276.243 0C271.872 0 271.289 7.04712 276.019 12.9224Z" fill="white"/>
<path d="M262.897 5.34495C260.933 7.32373 267.228 14.1989 272.108 14.7518C272.121 14.765 272.136 14.7755 272.153 14.7827C272.17 14.7899 272.188 14.7936 272.206 14.7936C272.225 14.7944 272.243 14.7912 272.26 14.7843C272.278 14.7774 272.293 14.7668 272.306 14.7534C272.319 14.7409 272.33 14.7258 272.338 14.7089C272.345 14.692 272.349 14.6738 272.349 14.6554C272.349 14.6182 272.335 14.5825 272.309 14.5557C271.755 9.67545 264.876 3.3549 262.897 5.34495Z" fill="white"/>
<path d="M270.455 19.0052C270.693 18.7786 270.724 18.7416 270.455 18.4876C264.595 13.744 257.535 14.3532 257.535 18.7159C257.535 23.0785 264.558 23.7087 270.455 19.0052Z" fill="white"/>
<path d="M262.888 32.0929C264.869 34.0573 271.744 27.7608 272.297 22.8822C272.308 22.8205 272.308 22.7574 272.297 22.6957C272.235 22.6861 272.172 22.6861 272.11 22.6957C267.23 23.239 260.925 30.1125 262.888 32.0929Z" fill="white"/>
</svg>
