<svg id="Grupo_27" data-name="Grupo 27" xmlns="http://www.w3.org/2000/svg" width="46" height="46" viewBox="0 0 46 46">
  <path id="Trazado_124" data-name="Trazado 124" d="M0,0H46V46H0Z" fill="none"/>
  <path id="Trazado_125" data-name="Trazado 125" d="M27.917,30.833a3.833,3.833,0,0,1,3.833,3.833,3.833,3.833,0,0,1,3.833-3.833A3.833,3.833,0,0,1,31.75,27,3.833,3.833,0,0,1,27.917,30.833Zm0-23a3.833,3.833,0,0,1,3.833,3.833,3.833,3.833,0,0,1,3.833-3.833A3.833,3.833,0,0,1,31.75,4,3.833,3.833,0,0,1,27.917,7.833Zm-13.417,23A11.5,11.5,0,0,1,26,19.333a11.5,11.5,0,0,1-11.5-11.5A11.5,11.5,0,0,1,3,19.333a11.5,11.5,0,0,1,11.5,11.5Z" transform="translate(2.75 3.667)" fill="none" stroke="#000" stroke-linecap="round" stroke-linejoin="round" stroke-width="1.8"/>
</svg>
