<svg xmlns="http://www.w3.org/2000/svg" xmlns:xlink="http://www.w3.org/1999/xlink" width="60" height="37" viewBox="0 0 42.122 37">
  <defs>
    <clipPath id="clip-path">
      <rect id="Rectángulo_2950" data-name="Rectángulo 2950" width="42.122" height="37" fill="#0099d0"/>
    </clipPath>
  </defs>
  <g id="Grupo_2825" data-name="Grupo 2825" transform="translate(0 0)">
    <g id="Grupo_2824" data-name="Grupo 2824" transform="translate(0 0)" clip-path="url(#clip-path)">
      <path id="Trazado_2080" data-name="Trazado 2080" d="M38.486,4.011A12.933,12.933,0,0,0,21.3,2.628a.328.328,0,0,1-.476.008A12.972,12.972,0,0,0,.171,11.068C.038,12.012.052,12.977,0,13.932a.931.931,0,0,0,.988,1.05c1.352.005,2.7,0,4.055,0a1.153,1.153,0,0,0,.868-.367c.793-.8,1.595-1.6,2.394-2.4.062-.062.128-.119.211-.194.047.126.081.214.11.3q1.368,4.019,2.733,8.04a.957.957,0,0,0,1.808.151q2.612-4.888,5.231-9.773c.135-.252.275-.5.433-.791.064.137.108.228.148.321.651,1.517,1.31,3.031,1.946,4.554a1.085,1.085,0,0,0,1.124.744c1.771-.014,3.543,0,5.313-.01a.693.693,0,0,1,.1.008q-.012-.942-.007-1.891h-.009c-1.531-.007-3.063-.011-4.595,0a.46.46,0,0,1-.509-.327c-.827-1.963-1.674-3.916-2.507-5.876a.956.956,0,0,0-1.786-.094q-2.23,4.176-4.468,8.348c-.354.662-.71,1.323-1.094,2.038-.053-.133-.084-.2-.108-.273q-.562-1.651-1.124-3.3-.7-2.065-1.4-4.131a.978.978,0,0,0-.8-.736,1,1,0,0,0-.893.35C7.128,10.725,6.08,11.758,5.05,12.81a.877.877,0,0,1-.716.293c-.735-.02-1.472-.012-2.207,0-.189,0-.252-.046-.244-.244A11.138,11.138,0,0,1,20.276,4.6a1.016,1.016,0,0,0,1.58,0A11.141,11.141,0,0,1,40.19,14.269a11.387,11.387,0,0,1-2.669,6.33,51.586,51.586,0,0,1-5.661,5.722c-3.384,3-6.95,5.77-10.6,8.434a.273.273,0,0,1-.394,0c-2.284-1.759-4.6-3.475-6.854-5.272a71.11,71.11,0,0,1-8.165-7.448,16.9,16.9,0,0,1-3-4.17,1.033,1.033,0,0,0-.434-.413.9.9,0,0,0-1.045.164.889.889,0,0,0-.2,1.084,24.592,24.592,0,0,0,1.454,2.381,39.419,39.419,0,0,0,5.339,5.707A132.748,132.748,0,0,0,20.334,36.7a1.029,1.029,0,0,0,1.468-.008c3.729-2.672,7.352-5.481,10.8-8.506a58.844,58.844,0,0,0,6.257-6.252,13.093,13.093,0,0,0,3.257-8.468,12.919,12.919,0,0,0-3.633-9.451" transform="translate(0 0)" fill="#0099d0"/>
    </g>
  </g>
</svg>
