<svg id="Grupo_2834" data-name="Grupo 2834" xmlns="http://www.w3.org/2000/svg" xmlns:xlink="http://www.w3.org/1999/xlink" width="40.208" height="40.393" viewBox="0 0 40.208 40.393">
  <defs>
    <clipPath id="clip-path">
      <rect id="Rectángulo_2954" data-name="Rectángulo 2954" width="42.122" height="37" fill="#0099d0"/>
    </clipPath>
  </defs>
  <g id="Grupo_2833" data-name="Grupo 2833" clip-path="url(#clip-path)">
    <path id="Trazado_2105" data-name="Trazado 2105" d="M16.373,94.842c-.46-.709-.858-1.358-1.292-1.981-.41-.588-.489-1.159.116-1.623.628-.482,1.169-.21,1.563.373.946,1.4,1.872,2.816,2.8,4.227a1,1,0,0,1-.249,1.514c-1.455,1-2.914,2.006-4.439,2.891a.831.831,0,0,1-.933-.089,1.755,1.755,0,0,1-.387-.784.883.883,0,0,1,.275-.818,11.569,11.569,0,0,1,1.975-1.4c-1.58-.468-3.111-.8-4.545-1.369A17.915,17.915,0,0,1,0,79.516,1.914,1.914,0,0,1,.765,78.08c.681-.377,1.248.28,1.287,1.37a15.789,15.789,0,0,0,4.414,10.6,15.969,15.969,0,0,0,9,4.781,5.807,5.807,0,0,0,.909.006" transform="translate(0 -59.954)" fill="#0099d0"/>
    <path id="Trazado_2106" data-name="Trazado 2106" d="M91.976,3.221a18.4,18.4,0,0,1,9.312,3.954A17.824,17.824,0,0,1,108,20.676c.032.772,0,1.571-1.037,1.565s-1.032-.809-1.055-1.576A16.056,16.056,0,0,0,92.35,5.405c-.187-.028-.378-.025-.8-.051.516.788.932,1.442,1.366,2.083.4.595.45,1.166-.172,1.612-.652.468-1.169.149-1.555-.424-.923-1.371-1.826-2.756-2.741-4.132a1.075,1.075,0,0,1,.33-1.678c1.4-.94,2.788-1.922,4.255-2.754a.978.978,0,0,1,.689,0c.268.067.733.6.7.805a1.63,1.63,0,0,1-.312.872,13.026,13.026,0,0,1-2.132,1.481" transform="translate(-67.8 0)" fill="#0099d0"/>
    <path id="Trazado_2107" data-name="Trazado 2107" d="M34.859,75.931V65.843h3.8a3.224,3.224,0,0,1,2.173.623,2.284,2.284,0,0,1,.71,1.812,2.6,2.6,0,0,1-.4,1.481,2.277,2.277,0,0,1-1.2.868v-.346a3.19,3.19,0,0,1,1.809.951,2.7,2.7,0,0,1,.6,1.83,2.633,2.633,0,0,1-.879,2.115,3.58,3.58,0,0,1-2.407.753ZM36.7,69.806H38.39a1.563,1.563,0,0,0,1.005-.274,1.07,1.07,0,0,0,.335-.879,1.088,1.088,0,0,0-.335-.9,1.577,1.577,0,0,0-1.005-.27H36.7Zm0,4.482h2.09A2.1,2.1,0,0,0,40,73.978a1.261,1.261,0,0,0,.45-1.117,1.21,1.21,0,0,0-.475-1.117,2.2,2.2,0,0,0-1.182-.3H36.7Z" transform="translate(-26.803 -50.627)" fill="#0099d0"/>
    <path id="Trazado_2108" data-name="Trazado 2108" d="M71.839,75.26l2.652-4.079q.526-.807.847-1.362a5.751,5.751,0,0,0,.465-.973,2.513,2.513,0,0,0,.144-.821A1.217,1.217,0,0,0,74.62,66.7a2.517,2.517,0,0,0-1.358.375,6.023,6.023,0,0,0-1.077.85l-.23-1.859a5.335,5.335,0,0,1,1.38-.807A4.5,4.5,0,0,1,75,64.97a2.865,2.865,0,0,1,1.524.375,2.378,2.378,0,0,1,.911.994,3.05,3.05,0,0,1,.3,1.355,4.266,4.266,0,0,1-.159,1.142,6.558,6.558,0,0,1-.522,1.268q-.364.7-.977,1.625l-1.182,1.8h3.2V75.26Z" transform="translate(-55.237 -49.956)" fill="#0099d0"/>
    <path id="Trazado_2109" data-name="Trazado 2109" d="M106.887,75.931V65.843h3.8a3.224,3.224,0,0,1,2.173.623,2.284,2.284,0,0,1,.71,1.812,2.6,2.6,0,0,1-.4,1.481,2.277,2.277,0,0,1-1.2.868v-.346a3.19,3.19,0,0,1,1.809.951,2.7,2.7,0,0,1,.6,1.83,2.633,2.633,0,0,1-.879,2.115,3.58,3.58,0,0,1-2.407.753Zm1.845-6.125h1.686a1.563,1.563,0,0,0,1.005-.274,1.07,1.07,0,0,0,.335-.879,1.088,1.088,0,0,0-.335-.9,1.577,1.577,0,0,0-1.005-.27h-1.686Zm0,4.482h2.09a2.1,2.1,0,0,0,1.207-.31,1.261,1.261,0,0,0,.45-1.117A1.21,1.21,0,0,0,112,71.745a2.2,2.2,0,0,0-1.182-.3h-2.09Z" transform="translate(-82.186 -50.627)" fill="#0099d0"/>
  </g>
</svg>
